<?xml version="1.0" encoding="UTF-8" standalone="no"?>
<!-- Created with Inkscape (http://www.inkscape.org/) -->

<svg
   xmlns:dc="http://purl.org/dc/elements/1.1/"
   xmlns:cc="http://creativecommons.org/ns#"
   xmlns:rdf="http://www.w3.org/1999/02/22-rdf-syntax-ns#"
   xmlns:svg="http://www.w3.org/2000/svg"
   xmlns="http://www.w3.org/2000/svg"
   xmlns:sodipodi="http://sodipodi.sourceforge.net/DTD/sodipodi-0.dtd"
   xmlns:inkscape="http://www.inkscape.org/namespaces/inkscape"
   width="210mm"
   height="225mm"
   viewBox="0 0 210 225"
   version="1.1"
   id="svg6031"
   inkscape:version="0.92.2 (5c3e80d, 2017-08-06)"
   sodipodi:docname="MDC logo_blank.svg">
  <defs
     id="defs6025" />
  <sodipodi:namedview
     id="base"
     pagecolor="#ffffff"
     bordercolor="#666666"
     borderopacity="1.0"
     inkscape:pageopacity="0.0"
     inkscape:pageshadow="2"
     inkscape:zoom="0.35"
     inkscape:cx="-100"
     inkscape:cy="560"
     inkscape:document-units="mm"
     inkscape:current-layer="layer1"
     showgrid="false"
     inkscape:window-width="1920"
     inkscape:window-height="1017"
     inkscape:window-x="-8"
     inkscape:window-y="-8"
     inkscape:window-maximized="1" />
  <metadata
     id="metadata6028">
    <rdf:RDF>
      <cc:Work
         rdf:about="">
        <dc:format>image/svg+xml</dc:format>
        <dc:type
           rdf:resource="http://purl.org/dc/dcmitype/StillImage" />
        <dc:title></dc:title>
      </cc:Work>
    </rdf:RDF>
  </metadata>
  <g
     inkscape:label="Layer 1"
     inkscape:groupmode="layer"
     id="layer1"
     transform="translate(0,-72)">
    <path
       style="fill:#000000;stroke-width:0.17149836"
       d="m 63.203272,294.8438 c -7.218514,-1.37059 -16.073937,-4.07972 -17.007787,-5.20321 -0.80101,-0.96364 -0.802683,-1.19445 -0.04583,-6.32727 0.386803,-2.62314 0.976105,-6.4186 1.30955,-8.43436 0.333451,-2.01575 0.564113,-3.83299 0.512589,-4.03825 -0.06385,-0.25447 -0.816205,-0.8074 -2.363715,-1.73721 -3.270587,-1.9651 -5.431616,-3.56031 -7.773565,-5.73823 -1.131889,-1.05259 -2.219942,-1.99169 -2.417891,-2.08682 -0.298522,-0.14347 -1.380934,0.29524 -6.345444,2.57171 -3.292037,1.50958 -6.834441,3.14451 -7.872006,3.63317 -1.713673,0.80709 -1.968557,0.88034 -2.782441,0.79958 -0.492775,-0.0489 -0.980305,-0.14102 -1.083392,-0.20475 -0.210478,-0.13008 -1.513092,-1.87787 -2.936489,-3.94006 -3.757146,-5.44327 -7.6979483,-12.95363 -7.6815558,-14.63951 0.015232,-1.56525 -0.315127,-1.27514 9.1674318,-8.0504 2.82972,-2.02183 5.204764,-3.77921 5.277881,-3.90528 0.07397,-0.12756 -0.09274,-1.0883 -0.375863,-2.16612 -1.106111,-4.2108 -1.725689,-8.54449 -1.727892,-12.08591 -0.0014,-1.64993 -0.06294,-2.32166 -0.229412,-2.48811 -0.125404,-0.12541 -3.823987,-1.60904 -8.219075,-3.29697 -8.6549459,-3.32393 -8.5654837,-3.27664 -8.8858636,-4.69715 -0.1605873,-0.71201 0.3943311,-4.47269 1.3825766,-9.36973 0.7376903,-3.65551 1.0824847,-4.80273 2.5856271,-8.60309 1.1268724,-2.84903 1.3795081,-3.17749 2.6632274,-3.46248 0.766029,-0.17006 2.6184515,0.0937 11.6760495,1.66266 3.189804,0.55253 5.890735,0.95575 6.002062,0.89605 0.111331,-0.0597 0.831442,-1.11175 1.600246,-2.33789 1.927048,-3.07339 3.083995,-4.54435 7.004647,-8.90585 0.599433,-0.66683 1.164836,-1.37182 1.256457,-1.56663 0.135094,-0.28724 -0.171737,-1.08164 -1.62285,-4.20171 -4.500223,-9.676 -5.439635,-11.77845 -5.43874,-12.17219 0.0026,-1.07016 0.327974,-1.61813 1.581871,-2.66267 1.862962,-1.55192 3.629682,-2.7276 7.335089,-4.8812 5.044606,-2.93194 8.710943,-4.6255 10.013641,-4.6255 1.408384,0 1.491489,0.0974 8.880818,10.40754 1.702627,2.37564 3.193518,4.35688 3.313083,4.40276 0.11957,0.0459 0.925236,-0.1385 1.790378,-0.40973 2.850248,-0.89361 8.87052,-1.70969 12.612343,-1.70969 1.478052,0 2.158229,-0.064 2.280204,-0.21438 0.09561,-0.1179 0.847726,-2.14373 1.671365,-4.50183 1.994128,-5.70923 4.30783,-11.73686 4.650556,-12.11556 0.152181,-0.16815 0.609208,-0.43273 1.015625,-0.58794 0.686782,-0.26228 0.857773,-0.26196 2.422843,0.005 3.813149,0.64941 9.37796,2.00601 12.231067,2.98171 3.952442,1.35166 6.126422,2.28001 6.489642,2.77129 0.75809,1.02538 0.74374,1.24425 -0.66741,10.17676 -0.72776,4.60668 -1.2836,8.5272 -1.2352,8.71228 0.0905,0.34612 1.37861,1.29837 3.25182,2.40397 1.80673,1.06636 4.84216,3.44252 6.94972,5.44031 1.10657,1.04893 2.07917,1.90715 2.16133,1.90715 0.0821,0 2.30233,-1.01307 4.93373,-2.25127 2.6314,-1.23821 6.1735,-2.86413 7.87133,-3.61316 2.83237,-1.24955 3.15062,-1.35244 3.85871,-1.24751 0.42446,0.0629 0.89259,0.17902 1.04028,0.25806 0.3785,0.20255 2.79794,3.34236 4.22417,5.4819 3.3623,5.04389 6.57512,11.4144 6.56286,13.01311 -0.007,0.93078 -0.20755,1.32745 -1.02291,2.02463 -0.95254,0.81448 -7.9062,5.95938 -10.85144,8.02878 -1.54705,1.08702 -2.72835,2.03691 -2.78748,2.24143 -0.0565,0.19522 0.0878,1.12131 0.32042,2.05798 0.97266,3.91571 1.65185,8.89686 1.65865,12.16444 0.002,0.84892 0.0599,1.6296 0.12921,1.73486 0.0693,0.10526 2.17112,0.9438 4.67071,1.86343 5.57895,2.05255 10.50655,3.94207 11.31175,4.33754 0.9129,0.44837 1.37913,1.26877 1.37913,2.4268 0,1.38454 -0.94201,6.56558 -1.65291,9.09093 -0.87852,3.12084 -2.76665,8.83939 -3.33254,10.09315 -0.42988,0.95245 -0.57988,1.11926 -1.28813,1.43256 l -0.8016,0.35459 -7.56693,-1.23523 c -4.16182,-0.67938 -8.13973,-1.3184 -8.83982,-1.42006 -1.47604,-0.2143 -1.27354,-0.36481 -2.55341,1.8978 -1.24603,2.20279 -3.64438,5.46622 -5.57085,7.58022 -0.96263,1.05637 -1.88666,2.13504 -2.05337,2.39708 l -0.30313,0.47642 1.82072,3.92349 c 3.40322,7.33356 5.38822,11.88963 5.38822,12.36725 0,0.82765 -0.32271,1.64481 -0.81264,2.05773 -1.04527,0.88095 -4.33661,3.317 -5.79005,4.28544 -2.40807,1.60451 -5.38277,3.23952 -8.74641,4.80735 -2.80864,1.30913 -3.15555,1.42994 -3.84758,1.33973 -0.41833,-0.0545 -0.91996,-0.20758 -1.11473,-0.34013 -0.19478,-0.13257 -2.592194,-3.40401 -5.327591,-7.26985 -2.735403,-3.86587 -5.1278,-7.10221 -5.316447,-7.19189 -0.25355,-0.12051 -1.034636,0.032 -2.995188,0.58484 -3.169776,0.89384 -6.416796,1.37386 -10.313555,1.52472 -1.566035,0.0606 -2.923012,0.16039 -3.015508,0.22172 -0.0925,0.0613 -0.48228,1.03756 -0.866199,2.16945 -1.657093,4.88558 -5.236403,14.06226 -5.675936,14.55205 -0.811732,0.90454 -1.895617,0.9844 -5.100878,0.37581 z m 4.372397,-0.50531 c 0.139255,-0.1678 0.143572,-0.25926 0.01426,-0.30235 -0.126189,-0.0421 -0.103522,-0.29385 0.07098,-0.78843 l 0.256369,-0.72662 -4.751476,0.0137 -4.751472,0.0137 1.276479,0.32115 c 1.061827,0.26714 4.519579,0.92179 6.831586,1.2934 0.309177,0.0497 0.516848,0.16363 0.4615,0.25319 -0.159745,0.25848 0.370547,0.18881 0.591759,-0.0777 z m 0.523083,-1.04566 c 0,-0.0943 -0.07481,-0.0557 -0.166246,0.0857 -0.09144,0.14151 -0.166246,0.33443 -0.166246,0.42875 0,0.0943 0.07481,0.0557 0.166246,-0.0858 0.09143,-0.14148 0.166246,-0.33442 0.166246,-0.42874 z m -10.370403,-0.77174 c 0.06009,-0.0973 -0.08397,-0.17151 -0.332873,-0.17151 -0.241377,0 -0.438866,0.0772 -0.438866,0.17151 0,0.0943 0.149788,0.17149 0.332875,0.17149 0.183079,0 0.380567,-0.0772 0.438864,-0.17149 z m 4.915968,-0.343 c 5.177058,0 5.631538,-0.0236 5.777003,-0.30012 0.21064,-0.40042 3.925344,-10.27509 4.736992,-12.59219 0.953003,-2.72068 0.700316,-2.58782 5.37796,-2.82753 4.224181,-0.21646 6.266715,-0.53543 9.753848,-1.52314 2.387355,-0.67622 2.864612,-0.7141 3.523347,-0.27971 0.259286,0.17096 2.631551,3.34176 5.271703,7.04619 5.15047,7.22672 5.53248,7.73253 5.83978,7.73253 0.386,0 5.24477,-2.25669 7.45339,-3.46177 3.63839,-1.98521 9.17889,-5.79346 10.53209,-7.23922 0.38567,-0.41206 0.3994,-0.48964 0.2027,-1.14616 -0.22546,-0.75252 -2.27379,-5.33767 -5.22963,-11.70641 -1.80047,-3.87934 -2.01099,-4.56889 -1.62188,-5.31231 0.19693,-0.37627 2.80926,-3.35018 3.47703,-3.95831 0.35097,-0.31962 0.22745,-0.3233 -7.17408,-0.21437 -4.14215,0.061 -13.375554,0.11086 -20.518685,0.11086 H 77.058376 l -6.255995,8.87505 c -3.440801,4.88126 -8.898361,12.6147 -12.127904,17.18541 -3.229552,4.57074 -5.910184,8.41014 -5.956969,8.53204 -0.04998,0.13028 0.04621,0.22657 0.233416,0.23355 0.175158,0.007 1.090212,0.2644 2.033454,0.57303 0.958747,0.31369 1.786826,0.4975 1.877903,0.41684 0.08961,-0.0793 2.691526,-0.14426 5.782036,-0.14426 z m -0.229393,-15.73498 c 5.574661,-7.89964 11.025043,-15.61807 12.111961,-17.15203 l 1.976206,-2.78906 -25.217231,0.007 c -13.869479,0.004 -25.302219,-0.0458 -25.406091,-0.11004 -0.108985,-0.0674 -0.140526,-0.0385 -0.07458,0.0682 0.101247,0.16382 -1.232563,2.12661 -6.349234,9.34337 -1.171215,1.65192 -1.366961,2.0151 -1.086097,2.0151 0.188434,0 0.323321,-0.0965 0.29974,-0.21437 -0.05101,-0.25512 0.944389,-0.74296 9.744308,-4.77561 3.685113,-1.68875 6.837129,-3.07044 7.004484,-3.07044 0.167353,0 1.408832,1.02736 2.758841,2.28301 2.730704,2.53983 4.340711,3.7367 8.190198,6.08843 1.437975,0.87851 2.724188,1.70483 2.858247,1.83625 0.210509,0.20637 0.181543,0.60827 -0.212442,2.94743 -0.703934,4.17946 -1.249678,7.67457 -1.842162,11.79788 -0.356197,2.4789 -0.62455,3.83876 -0.782408,3.96478 -0.205884,0.16435 -0.205565,0.22057 0.0019,0.39302 0.179412,0.14888 0.259397,0.15048 0.307539,0.006 0.04194,-0.12584 0.855263,0.10903 2.289031,0.661 2.109816,0.81225 2.660485,0.99755 3.100841,1.04345 0.104987,0.0109 4.751971,-6.44345 10.326636,-14.3431 z m -12.489749,14.02 c -0.141486,-0.0914 -0.334424,-0.16626 -0.428748,-0.16626 -0.09432,0 -0.05574,0.0748 0.08575,0.16626 0.141485,0.0914 0.334424,0.16624 0.428746,0.16624 0.09432,0 0.05574,-0.0748 -0.08575,-0.16624 z m -0.857494,-0.343 c -0.141486,-0.0914 -0.334423,-0.16626 -0.428747,-0.16626 -0.09432,0 -0.05574,0.0748 0.08575,0.16626 0.141486,0.0914 0.334417,0.16625 0.428741,0.16625 0.09432,0 0.05574,-0.0748 -0.08575,-0.16625 z m -0.857488,-0.343 c -0.141491,-0.0914 -0.334423,-0.16625 -0.428746,-0.16625 -0.09432,0 -0.05574,0.0748 0.08575,0.16625 0.141485,0.0914 0.334424,0.16625 0.428748,0.16625 0.09432,0 0.05574,-0.0748 -0.08575,-0.16625 z m -0.857494,-0.34299 c -0.141486,-0.0915 -0.334423,-0.16626 -0.428748,-0.16626 -0.09432,0 -0.05574,0.0748 0.08575,0.16626 0.141485,0.0914 0.334423,0.16624 0.428746,0.16624 0.09432,0 0.05574,-0.0748 -0.08575,-0.16624 z m 1.564765,-19.25356 c -0.169377,-0.16811 -0.189075,-0.14842 -0.096,0.096 0.06443,0.16913 0.160297,0.26432 0.213097,0.21153 0.05283,-0.0528 1.1e-4,-0.19119 -0.117094,-0.30753 z m -2.765251,-1.74896 c 0,-0.0439 -0.173643,-0.16387 -0.385877,-0.26672 -0.370539,-0.17956 -0.372647,-0.1764 -0.05296,0.0797 0.349902,0.28033 0.438846,0.31823 0.438846,0.187 z m -26.410755,-1.12077 c 0.141487,-0.0915 0.180079,-0.16626 0.08576,-0.16626 -0.09433,0 -0.287263,0.0748 -0.428747,0.16626 -0.141487,0.0914 -0.180079,0.16626 -0.08575,0.16626 0.09432,0 0.287255,-0.0748 0.428739,-0.16626 z m 1.874772,-5.37895 c 1.997083,-2.81696 3.600442,-5.15236 3.56303,-5.18978 -0.0374,-0.0374 -3.247559,-0.0478 -7.133642,-0.0232 l -7.065614,0.0448 1.17393,1.97223 c 1.982351,3.33037 5.602834,8.57498 5.780994,8.37428 0.02761,-0.0311 1.684226,-2.36138 3.681302,-5.17833 z m 0.01173,4.52145 c 0.518786,-0.27407 0.86607,-0.4983 0.771746,-0.4983 -0.09432,0 -0.595959,0.22423 -1.114737,0.4983 -0.518787,0.27407 -0.866071,0.49832 -0.771746,0.49832 0.09432,0 0.595958,-0.22425 1.114737,-0.49832 z m 2.572476,-1.20048 c 0.330139,-0.18075 0.52307,-0.32863 0.428747,-0.32863 -0.09432,0 -0.441608,0.14788 -0.771739,0.32863 -0.33014,0.18073 -0.523072,0.32862 -0.428748,0.32862 0.09432,0 0.441607,-0.14789 0.77174,-0.32862 z m 2.05798,-0.94325 c 0.424462,-0.22728 0.694574,-0.41324 0.600249,-0.41324 -0.09433,0 -0.518785,0.18596 -0.94324,0.41324 -0.424464,0.22729 -0.694574,0.41325 -0.600245,0.41325 0.09432,0 0.51878,-0.18596 0.943236,-0.41325 z m 1.886484,-0.85749 c 0.424457,-0.22729 0.694567,-0.41324 0.600244,-0.41324 -0.09432,0 -0.518781,0.18595 -0.943242,0.41324 -0.424456,0.2273 -0.694567,0.41324 -0.600243,0.41324 0.09432,0 0.518786,-0.18594 0.943241,-0.41324 z m 2.05798,-0.94322 c 0.330133,-0.18076 0.523072,-0.32865 0.428748,-0.32865 -0.09432,0 -0.441606,0.14789 -0.771746,0.32865 -0.330132,0.18072 -0.52307,0.32861 -0.428741,0.32861 0.09432,0 0.441607,-0.14789 0.771739,-0.32861 z m 1.886486,-0.85751 c 0.518779,-0.27407 0.866062,-0.49829 0.771739,-0.49829 -0.09432,0 -0.595953,0.22422 -1.114739,0.49829 -0.518779,0.27407 -0.866069,0.4983 -0.77174,0.4983 0.09432,0 0.595954,-0.22423 1.11474,-0.4983 z m 1.886477,-0.85749 c 0.33014,-0.18074 0.52307,-0.32863 0.428748,-0.32863 -0.09432,0 -0.441607,0.14789 -0.77174,0.32863 -0.330139,0.18073 -0.523072,0.32862 -0.428747,0.32862 0.09432,0 0.441606,-0.14789 0.771739,-0.32862 z m 1.972233,-0.34298 c -0.170725,-0.18867 -0.433498,-0.33813 -0.583949,-0.33215 -0.18665,0.007 -0.156542,0.0581 0.09478,0.15948 0.202577,0.0817 0.419362,0.2312 0.481742,0.33213 0.06236,0.10096 0.159415,0.18352 0.215632,0.18352 0.0562,0 -0.03747,-0.15436 -0.208202,-0.34298 z M 10.652069,256.3677 c 0,-0.0763 -0.117017,-0.28851 -0.260032,-0.47162 -0.24113,-0.3087 -0.245363,-0.2986 -0.05821,0.13874 0.201922,0.47188 0.318252,0.59354 0.318252,0.33288 z m 66.290282,-0.19431 c -0.09188,-0.14865 4.474153,-6.8056 5.888417,-8.58486 0.337379,-0.42448 0.493883,-0.67706 0.347782,-0.5613 -0.402865,0.3192 -2.920608,0.85585 -5.10884,1.08896 -4.390934,0.46773 -10.438401,-0.76164 -15.008055,-3.05093 -4.959863,-2.48477 -8.623432,-6.16946 -11.473491,-11.53961 -1.251297,-2.35773 -2.187,-5.14186 -2.808842,-8.35756 l -0.140364,-0.72588 -7.154053,10.1583 c -3.934728,5.58705 -8.959358,12.70503 -11.165856,15.81773 l -4.011798,5.65944 25.31447,0.0866 c 13.922951,0.0476 25.338319,0.10549 25.367468,0.12861 0.02917,0.0231 0.0081,-0.0307 -0.04686,-0.11952 z M 33.34136,245.31617 c 4.20922,-5.96601 9.315247,-13.19732 11.346737,-16.06958 l 3.693611,-5.22231 v -1.76625 -1.76625 l -11.104519,5.1e-4 c -6.107489,3.4e-4 -12.446043,0.0514 -14.085679,0.11361 l -2.981168,0.11308 0.09473,3.35923 c 0.05523,1.95946 0.209966,3.96667 0.371272,4.81698 0.152104,0.80175 0.392508,2.11372 0.534244,2.91547 0.141734,0.80175 0.495856,2.34524 0.786941,3.42997 0.291086,1.08472 0.565564,2.17267 0.609953,2.41766 0.07345,0.40533 -0.125281,0.58939 -2.207264,2.0444 -1.258382,0.87944 -4.526028,3.22575 -7.261423,5.21401 -5.0083798,3.64043 -5.8639228,4.22023 -5.6399368,3.82219 0.085042,-0.15114 0.054318,-0.14936 -0.1137625,0.007 -0.1921409,0.17831 -0.1864887,0.24936 0.034094,0.42874 0.1454392,0.11825 0.3648621,0.48512 0.487615,0.81526 0.1227463,0.33013 0.8314046,1.85432 1.5747925,3.38709 l 1.3516238,2.78685 h 7.427495 7.427495 l 7.653126,-10.84726 z m 70.90114,10.676 h 13.75795 l 1.71237,-2.40908 c 0.94181,-1.32501 2.06773,-3.0807 2.50205,-3.9016 1.28766,-2.43366 0.83475,-2.24402 4.07363,-1.70596 1.53075,0.25427 5.67722,0.93292 9.21437,1.50807 4.94095,0.80344 6.48285,1.11239 6.65414,1.33332 0.20438,0.26359 0.25048,0.25184 0.55355,-0.14118 0.39142,-0.50762 0.45957,-0.90333 0.0721,-0.41866 -0.25579,0.31998 -0.26174,0.31624 -0.15321,-0.0958 0.0621,-0.23582 0.44396,-1.35485 0.84857,-2.48674 0.81277,-2.27365 1.92206,-5.73423 2.59013,-8.08019 0.23865,-0.83804 0.76318,-3.41421 1.16562,-5.72481 0.40245,-2.3106 0.77698,-4.08561 0.83231,-3.94446 0.0843,0.21513 0.10278,0.2115 0.11413,-0.0225 0.0173,-0.35712 -0.43767,-0.76823 -0.53317,-0.48174 -0.042,0.12604 -1.17216,-0.23263 -3.14652,-0.9986 -1.69453,-0.65765 -4.50869,-1.72129 -6.25368,-2.36388 -1.745,-0.64259 -4.25316,-1.56993 -5.5737,-2.06075 l -2.40098,-0.89241 -0.0498,-1.39244 -0.0498,-1.39245 h -11.02743 c -6.0651,0 -12.18643,0.0502 -13.60296,0.11148 l -2.57552,0.11148 -0.11554,1.90362 c -0.39296,6.47428 -3.006917,12.89391 -6.984367,17.15293 -2.857916,3.06023 -7.471221,6.04585 -11.18481,7.23857 l -1.000697,0.3214 -3.037923,4.28747 c -1.670859,2.3581 -3.104458,4.39666 -3.185773,4.53016 -0.126933,0.20837 0.783582,0.22662 6.439599,0.12886 3.623096,-0.0626 12.778516,-0.11394 20.345381,-0.11408 z M 9.6735849,254.53898 c -0.2531413,-0.51614 -0.4890151,-0.90968 -0.5241595,-0.87452 -0.077042,0.077 0.7879829,1.81298 0.9034246,1.81298 0.04453,0 -0.1261238,-0.4223 -0.3792651,-0.93846 z m -0.6773186,-1.38416 c -0.055873,-0.14555 -0.1383352,-0.22787 -0.1832932,-0.18291 -0.044984,0.045 -0.030854,0.16406 0.031307,0.26464 0.1691109,0.27361 0.2679459,0.22046 0.151986,-0.0817 z m -0.7251999,-1.56276 c -0.1912982,-0.36264 -0.3512244,-0.60407 -0.3553922,-0.53652 -0.012186,0.1972 0.5616763,1.33733 0.6358025,1.26321 0.037076,-0.0371 -0.089106,-0.36409 -0.2804103,-0.72669 z M 122.26438,250.41369 c -0.0528,-0.0528 -0.1487,0.0424 -0.21311,0.21154 -0.0931,0.24441 -0.0734,0.26411 0.096,0.096 0.11721,-0.11635 0.1699,-0.25473 0.1171,-0.30753 z M 7.5860343,250.04523 c -0.2021747,-0.34766 -0.2509958,-0.2364 -0.085502,0.19487 0.05879,0.15328 0.143067,0.24255 0.1872212,0.19839 0.044141,-0.0441 -0.0013,-0.22111 -0.1017192,-0.39326 z M 122.72625,249.64651 c 0.14632,-0.28299 0.22746,-0.5145 0.1803,-0.5145 -0.0472,0 -0.20547,0.23151 -0.35181,0.5145 -0.14632,0.28296 -0.22746,0.51449 -0.1803,0.51449 0.0472,0 0.20547,-0.23153 0.35181,-0.51449 z m 20.66029,-0.42877 c 0,-0.0943 -0.0748,-0.0557 -0.16624,0.0858 -0.0914,0.14148 -0.16625,0.33441 -0.16625,0.42874 0,0.0943 0.0748,0.0557 0.16625,-0.0857 0.0914,-0.14151 0.16624,-0.33444 0.16624,-0.42877 z m -19.69518,-1.07186 c 0.21332,-0.272 0.20725,-0.27805 -0.0648,-0.0648 -0.28567,0.22402 -0.37652,0.36486 -0.23537,0.36486 0.0356,0 0.17067,-0.13506 0.30012,-0.30012 z m 20.20968,-0.30012 c 0,-0.0943 -0.0748,-0.0557 -0.16625,0.0857 -0.0914,0.14148 -0.16625,0.33442 -0.16625,0.42874 0,0.0943 0.0748,0.0557 0.16625,-0.0857 0.0914,-0.14149 0.16625,-0.33443 0.16625,-0.42875 z m -63.309316,-1.1064 c 3.511265,-0.72419 6.810891,-2.13617 10.043748,-4.29792 5.25651,-3.51496 8.607557,-8.44445 10.199648,-15.00398 0.66018,-2.72002 0.79323,-3.79632 0.79502,-6.43119 0.003,-4.33718 -0.7247,-7.32848 -2.753386,-11.31889 -1.53806,-3.02536 -2.645604,-4.62432 -4.608444,-6.65322 -3.596656,-3.71771 -8.012849,-6.11339 -13.390024,-7.2638 -1.637984,-0.35044 -2.343395,-0.4023 -5.399836,-0.39708 -3.810427,0.006 -5.305785,0.22695 -8.182816,1.20625 -4.930605,1.67831 -9.922897,5.33523 -12.860676,9.42064 -2.824359,3.92767 -4.610751,9.39546 -4.809211,14.72005 -0.176163,4.72636 0.904927,8.98812 3.387793,13.35498 4.282011,7.53118 10.780919,11.64083 20.66418,13.06718 1.238975,0.1788 5.217347,-0.0531 6.914004,-0.40302 z m 3.976141,-0.17982 c 0.141486,-0.0915 0.180072,-0.16627 0.08575,-0.16627 -0.09432,0 -0.287256,0.0748 -0.428747,0.16627 -0.141486,0.0914 -0.180072,0.16623 -0.08575,0.16623 0.09432,0 0.287262,-0.0748 0.428747,-0.16623 z m 1.543486,-0.60026 c 0.235809,-0.1348 0.351574,-0.24509 0.257251,-0.24509 -0.09433,0 -0.364435,0.11029 -0.60025,0.24509 -0.235809,0.13479 -0.351568,0.24509 -0.257244,0.24509 0.09432,0 0.364434,-0.1103 0.600243,-0.24509 z m 1.719875,-0.77421 c 0.563252,-0.28432 1.024097,-0.55555 1.024097,-0.60271 0,-0.0768 -2.040467,0.89429 -2.215185,1.05424 -0.212189,0.19428 0.285525,0.006 1.191088,-0.45153 z m 1.881591,-1.12434 c 0,-0.0472 -0.154346,-0.003 -0.342999,0.0978 -0.188647,0.10096 -0.342993,0.22216 -0.342993,0.26932 0,0.0472 0.154346,0.003 0.342993,-0.0978 0.188653,-0.10096 0.342999,-0.22216 0.342999,-0.26932 z m 9.870009,-10.38115 c 0.337373,-0.66994 0.585444,-1.24603 0.551264,-1.2802 -0.0342,-0.0342 -0.34719,0.51395 -0.695595,1.21806 -0.348398,0.70411 -0.596471,1.2802 -0.551266,1.2802 0.04518,0 0.358224,-0.54813 0.695597,-1.21806 z m 47.753434,-4.61288 c -0.14149,-0.0914 -0.33442,-0.16625 -0.42874,-0.16625 -0.0943,0 -0.0558,0.0748 0.0857,0.16625 0.14149,0.0914 0.33443,0.16624 0.42876,0.16624 0.0943,0 0.0557,-0.0748 -0.0858,-0.16624 z m -0.85749,-0.343 c -0.14149,-0.0914 -0.33442,-0.16625 -0.42875,-0.16625 -0.0943,0 -0.0557,0.0748 0.0858,0.16625 0.14149,0.0914 0.33442,0.16624 0.42875,0.16624 0.0943,0 0.0557,-0.0748 -0.0857,-0.16624 z m -0.8575,-0.343 c -0.14148,-0.0914 -0.33442,-0.16625 -0.42874,-0.16625 -0.0943,0 -0.0558,0.0748 0.0857,0.16625 0.14148,0.0914 0.33442,0.16625 0.42874,0.16625 0.0943,0 0.0557,-0.0748 -0.0857,-0.16625 z m -0.85749,-0.34299 c -0.14148,-0.0914 -0.33442,-0.16625 -0.42874,-0.16625 -0.0943,0 -0.0557,0.0748 0.0858,0.16625 0.14148,0.0914 0.33442,0.16624 0.42875,0.16624 0.0943,0 0.0557,-0.0748 -0.0858,-0.16624 z m -0.85749,-0.343 c -0.14148,-0.0914 -0.33442,-0.16625 -0.42874,-0.16625 -0.0943,0 -0.0558,0.0748 0.0857,0.16625 0.14149,0.0914 0.33443,0.16624 0.42875,0.16624 0.0943,0 0.0557,-0.0748 -0.0857,-0.16624 z m -2.74398,-1.02899 c -0.14148,-0.0914 -0.33441,-0.16625 -0.42874,-0.16625 -0.0943,0 -0.0557,0.0748 0.0858,0.16625 0.14149,0.0914 0.33442,0.16624 0.42875,0.16624 0.0943,0 0.0557,-0.0748 -0.0858,-0.16624 z m -1.88647,-0.68599 c -0.14149,-0.0914 -0.33443,-0.16625 -0.42875,-0.16625 -0.0943,0 -0.0557,0.0748 0.0857,0.16625 0.14148,0.0914 0.33442,0.16624 0.42875,0.16624 0.0943,0 0.0557,-0.0748 -0.0858,-0.16624 z m -2.74398,-1.02899 c -0.14149,-0.0914 -0.33442,-0.16625 -0.42874,-0.16625 -0.0943,0 -0.0557,0.0748 0.0858,0.16625 0.14148,0.0914 0.33441,0.16624 0.42874,0.16624 0.0943,0 0.0557,-0.0748 -0.0858,-0.16624 z m -1.88648,-0.686 c -0.14148,-0.0914 -0.33442,-0.16625 -0.42875,-0.16625 -0.0943,0 -0.0557,0.0748 0.0857,0.16625 0.14149,0.0914 0.33443,0.16625 0.42875,0.16625 0.0943,0 0.0557,-0.0748 -0.0858,-0.16625 z m -1.88648,-0.68599 c -0.14149,-0.0914 -0.33443,-0.16625 -0.42875,-0.16625 -0.0943,0 -0.0557,0.0748 0.0857,0.16625 0.14149,0.0914 0.33442,0.16624 0.42874,0.16624 0.0943,0 0.0557,-0.0748 -0.0857,-0.16624 z m -0.8575,-0.343 c -0.14148,-0.0914 -0.33441,-0.16625 -0.42874,-0.16625 -0.0943,0 -0.0557,0.0748 0.0858,0.16625 0.14149,0.0914 0.33442,0.16624 0.42875,0.16624 0.0943,0 0.0557,-0.0748 -0.0858,-0.16624 z m -97.450351,-3.04606 c 7.832524,0.0246 14.213513,5.1e-4 14.17999,-0.0537 -0.131432,-0.21259 0.449287,-3.89594 0.873342,-5.53935 1.374342,-5.32619 3.184289,-8.55909 6.837414,-12.2129 2.474814,-2.47528 4.766485,-4.13631 7.549756,-5.47215 1.542794,-0.74047 4.454716,-1.80233 5.069485,-1.84864 0.168184,-0.0127 0.271608,-0.11212 0.229833,-0.22099 -0.04174,-0.10887 1.510182,-2.44271 3.448806,-5.18632 1.938624,-2.74361 3.524772,-5.03115 3.524772,-5.08343 0,-0.0523 -9.402248,-0.0951 -20.893884,-0.0951 H 34.376688 l -1.448104,1.67211 c -2.058753,2.37722 -2.941772,3.56758 -4.538117,6.11761 -0.853022,1.36262 -1.597927,2.35738 -1.897937,2.53453 -0.477562,0.28199 -0.685939,0.25843 -6.323542,-0.71511 -8.230698,-1.42131 -11.2473017,-1.87492 -11.7834785,-1.77193 -0.2900424,0.0558 -0.5923224,0.30389 -0.8010632,0.65768 -0.3949767,0.66944 -2.0651361,4.98242 -2.5682168,6.6321 -0.7722709,2.5324 -2.4912517,12.21174 -2.3255632,13.09492 0.06417,0.34219 0.2780445,0.6373 0.5993552,0.82711 0.2747517,0.1623 2.7188871,1.14638 5.4314088,2.18685 2.7125217,1.04048 6.1490257,2.35857 7.6366757,2.9291 1.529615,0.58663 2.869591,1.20853 3.084048,1.43136 0.251852,0.26167 0.444517,0.33984 0.57359,0.23272 0.118909,-0.0987 5.722806,-0.1439 14.435305,-0.11647 z m 95.856631,-2.18464 c -0.14609,-2.21084 -0.89138,-6.73347 -1.58197,-9.59991 -0.50542,-2.09781 -0.51291,-2.26968 -0.12452,-2.85748 0.16445,-0.24887 2.02681,-1.7019 4.13859,-3.22893 8.40185,-6.07543 10.48052,-7.72452 10.48052,-8.3146 0,-0.69098 -1.82983,-4.6312 -3.6478,-7.85491 l -1.03967,-1.8436 -5.24507,0.003 -5.24507,0.003 -2.81374,3.98438 c -1.54756,2.19142 -7.0581,10.00399 -12.24565,17.36126 -5.18755,7.35729 -9.563,13.54646 -9.72323,13.75374 -0.21917,0.28351 -0.34006,0.32811 -0.4881,0.18007 -0.14805,-0.14805 -0.19678,-0.11396 -0.19678,0.13763 0,0.32883 0.23343,0.33443 13.93424,0.33443 h 13.93424 z m -22.45675,-5.91669 c 2.62923,-3.7258 8.04598,-11.40464 12.03722,-17.06409 3.99124,-5.65945 7.33772,-10.39183 7.43661,-10.51639 0.14883,-0.1875 -4.16891,-0.21702 -25.07671,-0.17151 l -25.256502,0.055 -0.284928,0.36442 c -0.156711,0.20044 -1.326778,1.84318 -2.600153,3.65053 -1.273375,1.80736 -2.760675,3.9119 -3.305104,4.67673 -0.544428,0.76485 -0.960853,1.41964 -0.925391,1.45511 0.03546,0.0354 0.480906,-0.0334 0.989873,-0.15307 0.599867,-0.14102 2.252616,-0.21769 4.698359,-0.21793 3.327401,-3.5e-4 3.983842,0.0468 5.558693,0.39938 3.686961,0.82541 7.081624,2.24307 9.98044,4.168 2.182898,1.44952 5.40882,4.68214 6.814988,6.82912 1.222836,1.86707 2.719325,4.72508 3.346305,6.39083 0.75462,2.00485 1.48205,5.11206 1.48205,6.33055 0,0.38051 0.0729,0.66611 0.16193,0.63467 0.0891,-0.0314 2.3131,-3.10555 4.94232,-6.83135 z m -8.010685,-2.55448 c -0.4783,-0.95314 -0.907067,-1.73298 -0.952803,-1.73298 -0.04576,0 0.318271,0.80716 0.808913,1.79371 0.490635,0.98654 0.919405,1.76638 0.952805,1.73298 0.0334,-0.0334 -0.33061,-0.84058 -0.808915,-1.79371 z m -9.78443,-11.07524 c 0,-0.0447 -0.231524,-0.20107 -0.514495,-0.3474 -0.644987,-0.33353 -0.684014,-0.18866 -0.04284,0.15916 0.538939,0.29238 0.557366,0.2986 0.557366,0.18824 z m -1.200492,-0.68691 c 0,-0.10399 -1.31165,-0.7779 -1.493777,-0.76748 -0.0745,0.005 0.211826,0.19371 0.636289,0.421 0.864605,0.46297 0.857488,0.46009 0.857488,0.34648 z m -2.057981,-1.03248 c -0.235809,-0.1348 -0.50592,-0.24509 -0.600243,-0.24509 -0.09432,0 0.02146,0.11029 0.257251,0.24509 0.235809,0.13481 0.505919,0.24509 0.600243,0.24509 0.09432,0 -0.02146,-0.11028 -0.257251,-0.24509 z m -23.874746,-12.71928 13.769148,-0.11392 2.253673,-3.18731 c 12.248024,-17.32207 19.857788,-28.15404 19.896167,-28.3208 0.05335,-0.23194 -1.232138,-0.71269 -3.21207,-1.20124 -0.754595,-0.1862 -1.719273,-0.45088 -2.143735,-0.58818 -0.424456,-0.1373 -1.350548,-0.37018 -2.057981,-0.5175 -2.47353,-0.51511 -5.408982,-1.08327 -6.219405,-1.20377 -0.464974,-0.0691 -0.882864,-0.23882 -0.969519,-0.39367 -0.129877,-0.23207 -0.193839,-0.23769 -0.43427,-0.0382 -0.190436,0.15804 -0.220641,0.2719 -0.09307,0.35075 0.126286,0.078 -0.188822,1.10635 -0.950579,3.10211 -1.360134,3.56346 -2.136703,5.69385 -3.620076,9.93104 -0.610886,1.745 -1.232286,3.50071 -1.380882,3.9016 l -0.270169,0.72886 -2.677799,0.001 c -2.582315,0.001 -5.340319,0.24484 -8.765992,0.7734 -1.970265,0.30401 -2.696806,0.4786 -4.764949,1.1451 -0.875722,0.28221 -1.692704,0.47456 -1.815509,0.42743 -0.122805,-0.0471 -0.947527,-1.11551 -1.832717,-2.37419 -0.885184,-1.25869 -3.252218,-4.54647 -5.260075,-7.30618 -2.007857,-2.75972 -3.671593,-5.15212 -3.697203,-5.31645 -0.0256,-0.16433 -0.106756,-0.39526 -0.180337,-0.51316 -0.167652,-0.26865 -0.6431,-0.28333 -0.585167,-0.0181 0.02359,0.10796 -0.391715,0.36813 -0.922889,0.57816 -0.531166,0.21002 -1.380085,0.57751 -1.886477,0.81665 -0.5064,0.23914 -1.355195,0.6266 -1.886225,0.86102 -2.470971,1.09084 -9.568494,5.4603 -11.964801,7.36591 -0.385649,0.30668 -0.943819,0.74583 -1.240369,0.97588 l -0.539184,0.41827 0.204334,-0.41827 c 0.193158,-0.3954 0.189749,-0.40007 -0.06236,-0.0854 -0.285181,0.35595 -0.367493,0.86436 -0.114645,0.70809 0.243542,-0.15051 0.407305,0.14539 2.081431,3.76096 0.873505,1.88649 2.549013,5.47509 3.723359,7.97467 1.174338,2.4996 2.166667,4.66048 2.205162,4.80196 0.04051,0.14875 -0.50205,0.85394 -1.286409,1.6721 l -1.356414,1.41487 7.144434,-1.3e-4 c 3.929439,-6e-5 13.340548,-0.0514 20.913579,-0.11403 z m 64.962884,-0.0342 c -0.0504,-0.0816 1.06889,-1.79172 2.48742,-3.80025 2.53634,-3.59126 2.57371,-3.65728 2.25241,-3.97859 -0.32131,-0.32131 -0.34213,-0.32126 -1.25419,0.003 -1.32474,0.47117 -4.65334,1.96403 -10.26102,4.60199 -3.66748,1.72526 -5.04125,2.29312 -5.5475,2.29312 -0.59057,0 -0.81245,-0.13193 -1.81382,-1.07859 -3.31576,-3.13454 -5.45137,-4.81702 -8.46521,-6.6691 -0.95561,-0.58724 -2.0331,-1.34894 -2.39442,-1.69266 -0.58503,-0.55652 -0.65696,-0.71582 -0.65696,-1.45493 0,-0.45649 0.54665,-4.26927 1.21478,-8.47285 0.66813,-4.20357 1.22309,-8.00945 1.23324,-8.4575 0.0234,-1.03237 -0.0473,-1.08656 -2.86385,-2.19418 -1.71231,-0.67339 -2.245286,-0.82045 -2.342837,-0.64642 -0.06946,0.1239 -2.035651,2.92637 -4.36931,6.22771 -11.221256,15.87428 -17.739279,25.13837 -17.739279,25.21289 0,0.0451 11.363909,0.10179 25.253136,0.126 13.88921,0.0242 25.27697,0.0631 25.30612,0.0863 0.0292,0.0233 0.0117,-0.0245 -0.0387,-0.10609 z m 10.08358,-0.23748 c -0.86797,-1.47049 -4.34105,-6.34064 -4.66416,-6.54033 -0.093,-0.0574 -1.07742,1.18804 -2.1877,2.76776 -1.11029,1.57971 -2.20754,3.12302 -2.43834,3.42958 l -0.41963,0.55737 h 4.91818 c 3.8877,0 4.89167,-0.0449 4.79165,-0.21438 z m -100.926136,-2.7706 c -0.01912,-0.34555 -0.02308,-0.34617 -0.103456,-0.0163 -0.04596,0.18864 -0.210647,0.49734 -0.365978,0.68599 -0.2801,0.34018 -0.279251,0.34031 0.103457,0.0163 0.212227,-0.17969 0.376919,-0.48838 0.365977,-0.686 z m -0.615593,-1.55498 c -0.253141,-0.51615 -0.489015,-0.9097 -0.52416,-0.87455 -0.07704,0.0771 0.787984,1.81299 0.903424,1.81299 0.04453,0 -0.126123,-0.4223 -0.379264,-0.93844 z m -1.145663,-2.43121 c -0.331623,-0.64628 -0.606758,-1.11863 -0.611392,-1.04967 -0.01277,0.18994 1.079446,2.35962 1.151549,2.28751 0.03455,-0.0345 -0.208527,-0.59157 -0.540157,-1.23784 z m -1.200279,-2.57314 c -0.237915,-0.45727 -0.436162,-0.77558 -0.440557,-0.70736 -0.01245,0.19367 0.734749,1.67712 0.807915,1.60396 0.03584,-0.0358 -0.129442,-0.43933 -0.367358,-0.8966 z m -1.028991,-2.22948 c -0.237914,-0.45726 -0.436161,-0.77557 -0.440557,-0.70735 -0.01245,0.19367 0.734749,1.67712 0.807916,1.60395 0.03584,-0.0358 -0.129442,-0.43933 -0.367359,-0.8966 z m -0.943054,-2.05857 c -0.191297,-0.36262 -0.35123,-0.60404 -0.355397,-0.5365 -0.01219,0.19721 0.561676,1.33734 0.635802,1.26322 0.03708,-0.0371 -0.08911,-0.36411 -0.280405,-0.72672 z m -1.200797,-2.5715 c -0.284721,-0.5518 -0.521386,-0.9471 -0.525916,-0.87845 -0.01264,0.19146 0.907248,2.01806 0.979793,1.94552 0.03507,-0.0351 -0.169155,-0.51527 -0.453877,-1.06707 z m 28.792054,0.90421 c 0,-0.0356 -0.135055,-0.17067 -0.300121,-0.30012 -0.27201,-0.21333 -0.278077,-0.20726 -0.06475,0.0648 0.224038,0.28567 0.36487,0.37652 0.36487,0.23537 z m 17.577373,-2.50576 c 0.06009,-0.0972 -0.0088,-0.12597 -0.161378,-0.0674 -0.297108,0.11401 -0.351471,0.23694 -0.104779,0.23694 0.08876,0 0.208527,-0.0763 0.266157,-0.16953 z m -47.397153,-0.63223 c -0.202168,-0.34766 -0.25099,-0.23638 -0.0855,0.19489 0.05879,0.15327 0.143067,0.24254 0.187221,0.19838 0.04414,-0.0441 -0.0014,-0.22112 -0.101719,-0.39327 z m 47.79399,-0.31751 c -0.05283,-0.0528 -0.1487,0.0424 -0.213103,0.2115 -0.09307,0.24443 -0.07337,0.26413 0.09601,0.096 0.117205,-0.11633 0.169896,-0.25471 0.117095,-0.30751 z m 1.399854,-3.93993 c 0,-0.0943 -0.07481,-0.0557 -0.166246,0.0857 -0.09143,0.14148 -0.166246,0.33442 -0.166246,0.42874 0,0.0943 0.07481,0.0558 0.166246,-0.0857 0.09144,-0.14149 0.166246,-0.33443 0.166246,-0.42875 z m -43.04084,-1.89855 c 0,-0.0472 -0.154351,-0.003 -0.342998,0.0978 -0.188646,0.10097 -0.342993,0.22216 -0.342993,0.26932 0,0.0472 0.154347,0.003 0.342993,-0.0978 0.188647,-0.10096 0.342998,-0.22216 0.342998,-0.26932 z m 1.200488,-0.686 c 0,-0.0472 -0.154346,-0.003 -0.342994,0.0978 -0.188653,0.10096 -0.342998,0.22215 -0.342998,0.26932 0,0.0472 0.154345,0.003 0.342998,-0.0978 0.188648,-0.10096 0.342994,-0.22215 0.342994,-0.26932 z m 1.200492,-0.68599 c 0,-0.0472 -0.154351,-0.003 -0.342999,0.0978 -0.188647,0.10096 -0.342998,0.22215 -0.342998,0.26931 0,0.0472 0.154351,0.003 0.342998,-0.0978 0.188648,-0.10096 0.342999,-0.22215 0.342999,-0.26932 z m 0.857488,-0.51449 c 0,-0.0472 -0.154345,-0.003 -0.342993,0.0978 -0.188654,0.10096 -0.342999,0.22215 -0.342999,0.26931 0,0.0472 0.154345,0.003 0.342999,-0.0978 0.188648,-0.10096 0.342993,-0.22215 0.342993,-0.26931 z m 41.497354,-1.01692 c 0,-0.0943 -0.07481,-0.0557 -0.166246,0.0858 -0.09143,0.14148 -0.16624,0.33442 -0.16624,0.42874 0,0.0943 0.07481,0.0557 0.16624,-0.0858 0.09144,-0.14149 0.166246,-0.33442 0.166246,-0.42874 z m -39.439392,-0.18031 c 0,-0.0472 -0.23152,0.034 -0.514496,0.18031 -0.28297,0.14632 -0.514495,0.30464 -0.514495,0.3518 0,0.0472 0.231525,-0.034 0.514495,-0.18031 0.282976,-0.14632 0.514496,-0.30464 0.514496,-0.3518 z m 0.947778,-0.55832 c -0.05283,-0.0528 -0.191181,-1.1e-4 -0.307516,0.1171 -0.168114,0.16937 -0.148415,0.18907 0.096,0.096 0.169137,-0.0644 0.264316,-0.1603 0.211515,-0.21311 z m 1.624697,-0.63336 c 0.235809,-0.1348 0.351574,-0.24509 0.25725,-0.24509 -0.09432,0 -0.364435,0.11029 -0.600243,0.24509 -0.235815,0.1348 -0.351574,0.2451 -0.257251,0.2451 0.09432,0 0.364434,-0.1103 0.600244,-0.2451 z m 37.552895,-0.5145 c 0,-0.0943 -0.07481,-0.0557 -0.166246,0.0857 -0.09144,0.14149 -0.166246,0.33442 -0.166246,0.42875 0,0.0943 0.07481,0.0557 0.166246,-0.0858 0.09143,-0.14149 0.166246,-0.33442 0.166246,-0.42875 z m -36.262117,-0.22412 c -0.05283,-0.0528 -0.191189,-1.1e-4 -0.307518,0.1171 -0.168113,0.16937 -0.148414,0.18907 0.096,0.096 0.169137,-0.0644 0.264316,-0.1603 0.211515,-0.2131 z m 0.767203,-0.20462 c 0.141484,-0.0914 0.180071,-0.16625 0.08575,-0.16625 -0.09432,0 -0.287254,0.0748 -0.42874,0.16625 -0.141492,0.0914 -0.180079,0.16624 -0.08575,0.16624 0.09432,0 0.287262,-0.0748 0.428748,-0.16624 z m 35.837906,-0.42874 c 0,-0.0943 -0.07481,-0.0557 -0.166245,0.0857 -0.09143,0.14149 -0.16624,0.33442 -0.16624,0.42875 0,0.0943 0.07481,0.0557 0.16624,-0.0857 0.09144,-0.14149 0.166245,-0.33442 0.166245,-0.42874 z m 0.514496,-1.37199 c 0,-0.0943 -0.07481,-0.0557 -0.166246,0.0857 -0.09143,0.14149 -0.16624,0.33443 -0.16624,0.42875 0,0.0943 0.07481,0.0557 0.16624,-0.0858 0.09144,-0.14149 0.166246,-0.33442 0.166246,-0.42874 z m 0.514495,-1.37199 c 0,-0.0943 -0.07481,-0.0558 -0.166246,0.0857 -0.09143,0.14149 -0.16624,0.33442 -0.16624,0.42874 0,0.0943 0.07481,0.0557 0.16624,-0.0857 0.09144,-0.14148 0.166246,-0.33442 0.166246,-0.42874 z m 0.342999,-0.85749 c 0,-0.0943 -0.07481,-0.0557 -0.166246,0.0858 -0.09143,0.14148 -0.166246,0.33441 -0.166246,0.42875 0,0.0943 0.07481,0.0557 0.166246,-0.0858 0.09144,-0.14148 0.166246,-0.33442 0.166246,-0.42874 z m 0.342998,-0.85749 c 0,-0.0943 -0.07481,-0.0558 -0.166245,0.0857 -0.09144,0.14149 -0.166246,0.33443 -0.166246,0.42875 0,0.0943 0.07481,0.0557 0.166246,-0.0858 0.09143,-0.14148 0.166245,-0.33442 0.166245,-0.42874 z m 61.487405,40.02363 c -1.10704,-0.13772 -1.25492,-0.20624 -1.89978,-0.88026 l -0.69928,-0.73091 -0.29055,-2.48514 c -0.1598,-1.36683 -0.47698,-4.32361 -0.70485,-6.57062 -0.22788,-2.24701 -0.50013,-4.18888 -0.60502,-4.31526 -0.1049,-0.12639 -0.59206,-0.32426 -1.08259,-0.43971 -2.07095,-0.48744 -4.66663,-1.4735 -7.23731,-2.74935 -1.50919,-0.74902 -2.80137,-1.36107 -2.87151,-1.3601 -0.0701,0.001 -0.72612,0.52507 -1.45773,1.16467 -0.73161,0.63959 -1.57035,1.35346 -1.86385,1.58636 -0.29351,0.23291 -1.87558,1.54963 -3.51572,2.92607 -1.64014,1.37644 -3.15063,2.59193 -3.35667,2.7011 -0.20602,0.10917 -0.75033,0.19849 -1.20958,0.19849 -0.66582,0 -0.98948,-0.11108 -1.59762,-0.54828 -2.52464,-1.81497 -6.79591,-5.99593 -9.21331,-9.0185 l -1.41051,-1.76359 v -1.07247 -1.07246 l 1.61256,-1.99348 c 0.88691,-1.0964 2.66956,-3.25442 3.96145,-4.79561 1.29189,-1.54118 2.42626,-2.96579 2.52082,-3.16581 0.14074,-0.29771 0.0303,-0.60931 -0.60913,-1.71778 -1.33407,-2.3129 -2.29707,-4.52029 -3.21128,-7.36093 -0.48394,-1.5037 -0.96839,-2.82738 -1.07654,-2.94151 -0.10816,-0.11413 -1.04557,-0.28757 -2.08314,-0.38543 -1.03757,-0.0979 -2.69681,-0.256 -3.68721,-0.35142 -0.9904,-0.0954 -2.68824,-0.25092 -3.77296,-0.34556 -3.222972,-0.28121 -3.479192,-0.33431 -4.033285,-0.83598 -0.895873,-0.81112 -0.954708,-0.97362 -1.290292,-3.5636 -0.531114,-4.09908 -0.425921,-11.17942 0.196017,-13.19368 0.28067,-0.909 1.277167,-1.55075 2.739065,-1.76398 1.257209,-0.18338 5.642995,-0.66324 9.705725,-1.06194 1.1476,-0.11262 2.15902,-0.25188 2.2476,-0.30948 0.0886,-0.0576 0.52524,-1.25411 0.97036,-2.65892 0.88827,-2.80346 1.68641,-4.64549 3.03071,-6.9946 0.73566,-1.28554 0.85277,-1.603 0.70566,-1.91296 -0.097,-0.20439 -1.25771,-1.66433 -2.57935,-3.2443 -1.32164,-1.57997 -3.14251,-3.7869 -4.04637,-4.90428 l -1.6434,-2.031595 v -1.039824 -1.039824 l 1.61618,-2.0004 c 2.17271,-2.689247 5.26348,-5.848181 7.55649,-7.723156 l 1.88399,-1.540525 h 1.0452 c 1.02492,0 1.06933,0.01996 2.28911,1.02899 0.68416,0.565945 1.74812,1.435384 2.36436,1.932084 0.61625,0.496702 2.13401,1.733759 3.37282,2.749014 1.23881,1.015256 2.54389,2.066646 2.90018,2.336423 l 0.6478,0.490504 2.29281,-1.134242 c 4.0087,-1.983081 7.5962,-3.407669 9.01195,-3.578615 0.52524,-0.06342 0.57996,-0.340701 0.85537,-4.334161 0.18914,-2.742774 0.7608,-8.155383 0.9436,-8.934342 0.0458,-0.195212 0.35177,-0.631376 0.67991,-0.969251 0.69843,-0.719153 1.29946,-0.846832 5.5662,-1.182455 4.0177,-0.316033 10.59071,0.167927 11.50855,0.847356 1.14897,0.850527 1.28333,1.486225 2.0543,9.719705 0.19431,2.07513 0.41012,4.040259 0.47958,4.366949 0.13878,0.65263 0.0469,0.605007 2.84379,1.473084 0.83434,0.258952 2.95663,1.191924 4.7162,2.073273 1.75958,0.88135 3.29369,1.602992 3.40918,1.603653 0.11549,7.13e-4 0.73288,-0.448501 1.37199,-0.998134 1.39886,-1.203012 5.11981,-4.275506 6.47444,-5.346105 0.53706,-0.424458 1.33506,-1.061147 1.77334,-1.414862 0.72791,-0.58746 0.88838,-0.643119 1.85429,-0.643119 h 1.05742 l 1.6897,1.350923 c 2.43454,1.946417 5.98582,5.411836 7.95852,7.7661 l 1.70586,2.035804 -0.006,1.069149 -0.006,1.069148 -4.0356,4.887701 c -2.21956,2.68824 -4.11743,5.05522 -4.21743,5.25996 -0.15367,0.31458 0.0325,0.80619 1.20162,3.17273 0.84816,1.71686 1.69485,3.76266 2.18823,5.28718 0.44259,1.3677 0.86377,2.64705 0.93592,2.843 0.11801,0.32052 0.36083,0.37749 2.42066,0.56782 1.25925,0.11636 3.02268,0.28133 3.91877,0.3666 0.89608,0.0853 2.55532,0.23767 3.68721,0.33866 3.38378,0.30193 3.45371,0.31725 4.11283,0.90079 0.74839,0.66257 0.90586,1.21622 1.11824,3.93159 0.36593,4.67843 0.38533,5.53938 0.18373,8.14967 -0.39195,5.07426 -0.48797,5.45403 -1.58624,6.27401 -0.46965,0.35063 -2.90525,0.64416 -11.0315,1.32948 -1.22621,0.10341 -2.38844,0.25183 -2.58275,0.3298 -0.26453,0.10617 -0.44948,0.5019 -0.73624,1.57518 -0.4898,1.83314 -1.69852,4.86353 -2.88805,7.24056 -0.51269,1.0245 -0.89702,1.95059 -0.85403,2.05798 0.043,0.1074 1.96894,2.45911 4.27993,5.22604 2.54324,3.045 4.23984,5.22106 4.29822,5.51289 0.21819,1.091 -0.0646,1.74615 -1.51893,3.5192 -2.25759,2.75235 -6.38178,7.04889 -8.02045,8.35567 -1.56818,1.25054 -2.35928,1.54186 -3.44633,1.26902 -0.43159,-0.10832 -5.77527,-4.31203 -8.93966,-7.03258 -0.94324,-0.81094 -1.80507,-1.4751 -1.91519,-1.4759 -0.1101,-6.5e-4 -0.80468,0.3564 -1.54349,0.79379 -0.7388,0.4374 -1.65198,0.92953 -2.02927,1.09363 -0.3773,0.16411 -1.18763,0.52953 -1.80074,0.81207 -1.10101,0.50736 -2.94064,1.14474 -4.82943,1.67326 -0.56208,0.15728 -1.02168,0.39473 -1.09179,0.56405 -0.11365,0.27456 -0.32783,2.36173 -1.02432,9.98209 -0.26231,2.86992 -0.33225,3.23507 -0.73286,3.82609 -0.58615,0.86474 -0.75923,0.94041 -2.82126,1.23354 -1.97878,0.28128 -11.15039,0.32564 -13.25287,0.0641 z m 4.20172,-0.83626 -2.65823,-0.0994 2.61535,-0.036 2.61535,-0.036 V 170.4246 152.77062 l -0.64312,-0.0532 c -0.40218,-0.0333 -0.62705,-0.13354 -0.60024,-0.26761 0.03,-0.14984 -0.20234,-0.20757 -0.77174,-0.19179 -0.80327,0.0223 -0.80626,0.0244 -0.21437,0.15539 l 0.60024,0.1328 -0.68599,-0.0268 c -0.44672,-0.0174 -0.67105,-0.10154 -0.64312,-0.24113 0.0278,-0.13893 -0.15329,-0.20836 -0.5145,-0.19728 -0.53687,0.0165 -0.5416,0.0227 -0.12862,0.16877 0.89861,0.31792 -0.97248,-0.009 -2.37323,-0.41497 l -1.39974,-0.40542 -0.003,17.76722 c -10e-4,9.90378 -0.0693,17.87249 -0.15326,18.00507 -0.0936,0.1478 -0.32335,0.20484 -0.60682,0.15065 l -0.4562,-0.0872 0.39053,0.41569 c 0.28851,0.30711 0.5037,0.38959 0.82382,0.31577 0.32845,-0.0758 0.37105,-0.0578 0.17605,0.0741 -0.18907,0.12795 -0.0299,0.1688 0.60024,0.15413 0.82394,-0.0192 0.834,-0.0251 0.25725,-0.15275 l -0.60024,-0.1328 0.68599,0.0268 c 0.44671,0.0174 0.67104,0.10153 0.64312,0.24113 -0.0332,0.1658 0.60792,0.2062 2.82972,0.17831 l 2.8726,-0.036 z m 8.91791,-0.42875 c 0.9904,-0.1355 1.9165,-0.25651 2.05798,-0.26891 0.14149,-0.0124 0.0643,-0.0762 -0.1715,-0.14178 l -0.42874,-0.11925 -0.0437,-17.95673 c -0.024,-9.8762 -0.0722,-17.95673 -0.10707,-17.95673 -0.0349,0 -0.40109,0.11919 -0.81382,0.26486 -1.37569,0.48555 -4.84518,1.0963 -6.28125,1.10572 -0.1701,10e-4 -0.21437,3.64936 -0.21437,17.66574 v 17.66433 l 2.10085,-0.005 c 1.15547,-0.003 2.91118,-0.1163 3.90158,-0.25181 z m -14.23515,-18.73619 -6.5e-4,-17.79296 -1.60576,-0.81699 c -2.08912,-1.06294 -4.03183,-2.52192 -5.65359,-4.24586 -1.39727,-1.48531 -3.02542,-3.80399 -3.70335,-5.27402 l -0.4171,-0.90446 -2.75561,0.047 -2.75555,0.047 -0.0857,4.55443 -0.0858,4.55443 -0.63883,1.29175 c -0.83592,1.69029 -2.0032,2.86576 -3.65794,3.68356 -1.20285,0.59449 -1.42433,0.64459 -3.12931,0.70791 -1.33148,0.0495 -2.06788,-0.005 -2.68432,-0.19562 -0.46723,-0.14507 -0.85726,-0.2473 -0.86677,-0.22719 -0.01,0.0201 -1.67849,2.04312 -3.70888,4.49555 -2.03038,2.45242 -4.08397,4.96245 -4.56352,5.57783 l -0.87191,1.11887 0.71407,0.95123 c 2.15972,2.87697 6.02503,6.87007 8.75999,9.04961 2.29278,1.82716 1.95824,1.77722 3.48961,0.52094 2.22899,-1.82858 7.08779,-5.8938 8.35829,-6.99316 0.66028,-0.57132 1.36768,-1.04133 1.57203,-1.04446 0.20435,-0.003 1.13044,0.42417 2.05798,0.94957 2.75309,1.55947 5.09221,2.4811 8.97512,3.53629 l 1.45774,0.39615 0.21155,2.22947 c 0.71991,7.58713 1.21523,11.57614 1.43741,11.57614 0.0871,0 0.15144,-7.58673 0.151,-17.79295 z m 16.46463,17.20283 c 0,-0.60526 0.24536,-0.95353 0.40056,-0.56856 0.0478,0.11849 0.0828,-0.17043 0.0778,-0.64205 -0.009,-0.81537 -0.0155,-0.82801 -0.14184,-0.25725 l -0.13281,0.60024 0.0268,-0.68599 c 0.0174,-0.4467 0.10154,-0.67103 0.24113,-0.64312 0.15392,0.0308 0.20711,-0.23524 0.18862,-0.94324 l -0.0257,-0.98611 -0.12555,0.77174 -0.12555,0.77174 0.0227,-0.85749 c 0.0155,-0.58538 0.0907,-0.84389 0.23706,-0.81462 0.147,0.0294 0.208,-0.18617 0.19408,-0.68599 -0.019,-0.68404 -0.0283,-0.69722 -0.15121,-0.21437 l -0.13092,0.51449 -0.0203,-0.63299 c -0.0204,-0.63419 0.21714,-1.01604 0.38027,-0.61144 0.0478,0.11849 0.0935,-0.0933 0.10161,-0.47056 0.008,-0.37729 0.0502,-1.22621 0.0935,-1.88647 0.0544,-0.8299 0.0338,-1.04167 -0.0667,-0.68599 l -0.14538,0.51448 -0.0203,-0.45759 c -0.0294,-0.66232 0.15679,-1.09539 0.34395,-0.80015 0.0872,0.13756 0.13635,-0.18149 0.1233,-0.80023 -0.0204,-0.96601 -0.0292,-0.987 -0.14454,-0.343 l -0.12283,0.68599 -0.0244,-0.80449 c -0.0234,-0.77374 0.19592,-1.23016 0.37622,-0.78293 0.0478,0.11849 0.0918,-0.0161 0.0978,-0.29905 0.008,-0.39263 -0.0284,-0.45356 -0.15533,-0.25726 -0.12628,0.19542 -0.16687,0.12424 -0.16887,-0.29616 -0.003,-0.7323 0.32905,-0.93127 2.6556,-1.58901 2.2257,-0.62922 3.21537,-0.99732 5.37879,-2.00059 1.91205,-0.8867 2.26409,-0.95838 0.7094,-0.14445 -0.61311,0.32099 -1.05379,0.58735 -0.97928,0.59193 0.18868,0.0116 1.31425,-0.56419 3.07842,-1.57472 1.12695,-0.64554 1.61553,-0.83628 1.96895,-0.76872 0.43134,0.0824 0.44379,0.0706 0.15111,-0.14338 -0.34351,-0.25118 -0.88788,-0.0454 -2.39437,0.90506 -0.36404,0.22968 -0.61624,0.34374 -0.56046,0.25348 0.15163,-0.24535 2.44772,-1.57952 2.71006,-1.57471 0.12501,0.002 0.65606,0.40745 1.1801,0.90036 0.52407,0.49291 0.75559,0.738 0.5145,0.54464 -0.96082,-0.77065 -1.07981,-0.78387 -0.26684,-0.0296 0.47163,0.43753 0.94575,0.76575 1.0536,0.72938 0.10787,-0.0364 0.37799,0.14052 0.60025,0.39309 l 0.40413,0.45924 -0.43975,-0.343 c -0.24186,-0.18865 -0.1261,-0.0433 0.25724,0.32304 0.88492,0.8456 7.30904,6.0093 7.80903,6.27688 0.43226,0.23135 0.94362,0.10102 0.76128,-0.19402 -0.0782,-0.1265 -0.0481,-0.15282 0.0825,-0.0721 0.1919,0.1186 2.07685,-1.14519 2.07685,-1.39247 0,-0.0587 -0.15436,0.0329 -0.343,0.20364 -0.18865,0.17072 -0.343,0.27331 -0.343,0.22797 0,-0.0454 0.20539,-0.26953 0.45641,-0.4982 0.25101,-0.22867 0.40081,-0.31929 0.33286,-0.20139 -0.30938,0.53693 0.26068,0.1011 1.56525,-1.1967 1.30025,-1.2935 1.74767,-1.87943 1.20407,-1.5768 -0.1179,0.0656 0.3625,-0.47002 1.06758,-1.19037 0.70507,-0.72033 1.32038,-1.30971 1.36739,-1.30971 0.047,0 -0.45264,0.55951 -1.11028,1.24337 l -1.1957,1.24336 1.41469,-1.36796 c 0.77807,-0.75238 1.41467,-1.43222 1.41467,-1.51074 0,-0.0785 -0.0772,-0.0951 -0.1715,-0.0367 -0.34665,0.21425 -0.15497,-0.0336 0.47126,-0.60947 0.61453,-0.56506 0.62394,-0.56793 0.21438,-0.0653 -0.23561,0.28916 0.0141,0.0576 0.55491,-0.51449 0.89435,-0.94616 1.25662,-1.48318 0.81743,-1.21175 -0.30698,0.18973 -0.18088,-0.0246 0.21143,-0.35929 0.37904,-0.32339 0.38036,-0.32323 0.13157,0.0163 -0.2488,0.33953 -0.24747,0.3397 0.13157,0.0163 0.40544,-0.34591 0.53158,-0.72608 0.16855,-0.50799 -0.14567,0.0875 -0.13893,0.0358 0.021,-0.16137 0.27419,-0.33802 0.44405,-0.38824 0.25634,-0.0758 -0.0875,0.14567 -0.0358,0.13893 0.16137,-0.021 0.70858,-0.57477 0.44762,-0.99749 -3.62814,-5.87769 -2.15507,-2.58042 -4.06513,-4.80441 -4.24458,-4.9422 -0.17946,-0.13779 -0.0948,0.0167 0.18822,0.34316 l 0.51449,0.5937 -0.55749,-0.50383 c -0.30662,-0.2771 -0.53814,-0.62265 -0.51449,-0.76789 0.0553,-0.33964 -0.21666,-0.33038 -1.6114,0.0549 -0.86545,0.23907 -1.5514,0.29836 -2.84897,0.24624 -1.5499,-0.0622 -1.82706,-0.12702 -2.97606,-0.69548 -2.17249,-1.07481 -3.32496,-2.33855 -4.12356,-4.52173 -0.33457,-0.91462 -0.37881,-1.44401 -0.44661,-5.34548 l -0.0753,-4.33034 h -2.81044 -2.81046 l -0.58672,1.15762 c -0.8373,1.65206 -2.1015,3.38083 -3.55823,4.86586 -0.69387,0.70734 -0.87366,0.85691 -0.39955,0.33239 0.4741,-0.52452 1.01432,-1.1484 1.20048,-1.38641 0.18616,-0.238 -0.14063,0.0793 -0.72621,0.70521 -0.58558,0.62587 -1.64673,1.58375 -2.3581,2.12862 -0.71137,0.54487 -1.2934,1.02801 -1.2934,1.07365 0,0.0908 0.0353,0.0666 1.28623,-0.88094 l 0.8575,-0.64951 -0.73338,0.66565 c -0.8251,0.7489 -1.88652,1.43148 -1.66261,1.06921 0.0778,-0.12592 -0.16159,-0.0475 -0.53199,0.17426 -0.65576,0.39258 -1.30133,0.90087 -0.75924,0.59779 0.21595,-0.12074 0.22195,-0.10026 0.0375,0.12754 -0.12088,0.14925 -0.60321,0.43633 -1.07187,0.63793 l -0.85209,0.36657 v 17.91681 c 0,11.8302 0.0583,17.91681 0.1715,17.91681 0.0943,0 0.1715,-0.26556 0.1715,-0.59013 z m 0.686,-7.17435 c 0,-0.43461 0.0675,-0.83194 0.15008,-0.88296 0.13822,-0.0854 0.0552,1.44004 -0.0872,1.6017 -0.0346,0.0393 -0.0629,-0.28413 -0.0629,-0.71874 z m 23.54771,-2.96669 -0.48118,-0.44125 0.55736,0.38775 c 0.30656,0.21327 0.55738,0.41184 0.55738,0.44127 0,0.13536 -0.1897,0.0192 -0.63356,-0.38777 z m 1.83404,0.37887 c 0,-0.0472 0.23153,-0.25061 0.5145,-0.45211 0.28297,-0.20149 0.51449,-0.32776 0.51449,-0.2806 0,0.0472 -0.23152,0.25061 -0.51449,0.45211 -0.28297,0.20149 -0.5145,0.32776 -0.5145,0.2806 z m -3.17272,-1.41414 -0.68599,-0.61393 0.72887,0.54515 c 0.62732,0.46919 0.85361,0.69524 0.68599,0.68527 -0.0236,-0.001 -0.35157,-0.27882 -0.72887,-0.61649 z m 6.51694,-1.43894 c 0.56005,-0.56595 1.05685,-1.02899 1.10401,-1.02899 0.0472,0 -0.37247,0.46304 -0.93251,1.02899 -0.56004,0.56594 -1.05684,1.02899 -1.10401,1.02899 -0.0472,0 0.37246,-0.46305 0.93251,-1.02899 z m -8.3857,0.002 c -0.55619,-0.45997 -1.13499,-0.96985 -1.28624,-1.13306 -0.15123,-0.16321 0.32314,0.18381 1.05415,0.77116 1.12734,0.90579 1.49975,1.25549 1.28624,1.20779 -0.0236,-0.005 -0.49795,-0.38592 -1.05415,-0.84589 z m -2.67594,-2.2485 -0.94325,-0.87072 0.98612,0.80769 c 0.86548,0.70888 1.10111,0.94259 0.94324,0.93563 -0.0236,-0.001 -0.46733,-0.39371 -0.98611,-0.8726 z m 16.63534,-3.84172 c 0.22152,-0.23581 0.44137,-0.42875 0.48853,-0.42875 0.0472,0 -0.0955,0.19294 -0.31703,0.42875 -0.22153,0.23581 -0.44137,0.42875 -0.48853,0.42875 -0.0472,0 0.0955,-0.19294 0.31703,-0.42875 z m 1.12608,-3.64434 c -0.37065,-0.47372 -0.40033,-0.55328 -0.11275,-0.30204 0.34382,0.30037 0.79736,0.94517 0.66482,0.94516 -0.0269,-1e-5 -0.27534,-0.28941 -0.55207,-0.64312 z m -0.96757,-1.20049 -0.41576,-0.47162 0.47162,0.41577 c 0.25939,0.22867 0.47162,0.4409 0.47162,0.47162 0,0.1345 -0.13888,0.025 -0.52748,-0.41577 z m -1.72069,-2.05798 c -0.69086,-0.82533 -1.13182,-1.40148 -0.97989,-1.28032 0.33375,0.26615 2.42734,2.78094 2.31516,2.78094 -0.0435,0 -0.64441,-0.67528 -1.33527,-1.50062 z m -1.70928,-2.05798 -0.41576,-0.47162 0.47163,0.41577 c 0.25939,0.22867 0.47161,0.4409 0.47161,0.47162 0,0.1345 -0.13888,0.025 -0.52748,-0.41577 z m -0.85748,-1.02899 -0.41577,-0.47162 0.47162,0.41577 c 0.25939,0.22867 0.47163,0.4409 0.47163,0.47162 0,0.1345 -0.13888,0.025 -0.52748,-0.41577 z m -0.94105,-1.11474 -0.50371,-0.55736 0.55737,0.5037 c 0.51956,0.46952 0.63621,0.61104 0.50371,0.61104 -0.0295,0 -0.28033,-0.25083 -0.55737,-0.55738 z m -28.01491,-6.69407 c 0.0393,-0.0267 0.22581,-0.16174 0.41446,-0.30012 0.31727,-0.23273 0.32535,-0.22908 0.10763,0.0485 -0.12946,0.16507 -0.31596,0.30013 -0.41446,0.30013 -0.0985,0 -0.14692,-0.0219 -0.10763,-0.0485 z m -1.61043,36.45232 c -0.0435,-0.16687 -0.0819,-0.0719 -0.0854,0.21111 -0.003,0.28297 0.0321,0.41949 0.0791,0.30339 0.047,-0.11611 0.0498,-0.34764 0.006,-0.5145 z m -40.91358,-9.43567 c 0.21332,-0.27201 0.20726,-0.27808 -0.0648,-0.0648 -0.16507,0.12946 -0.30013,0.26451 -0.30013,0.30012 0,0.14116 0.14084,0.0503 0.36488,-0.23536 z m -3.45185,-0.44505 c 0,-0.0325 -0.17364,-0.20618 -0.38587,-0.38587 l -0.38587,-0.3267 0.32671,0.38588 c 0.30702,0.36261 0.44503,0.46394 0.44503,0.32669 z m 4.48084,-0.41245 c 0.21332,-0.272 0.20726,-0.27807 -0.0648,-0.0648 -0.16507,0.12945 -0.30013,0.26451 -0.30013,0.30012 0,0.14115 0.14084,0.0503 0.36488,-0.23538 z m -5.50983,-0.44172 c 0,-0.0307 -0.21222,-0.24295 -0.47161,-0.47163 l -0.47163,-0.41576 0.41577,0.47162 c 0.38859,0.4408 0.52747,0.55027 0.52747,0.41577 z m 6.4312,-0.28714 c 0.17072,-0.18865 0.27182,-0.343 0.22466,-0.343 -0.0472,0 -0.22544,0.15435 -0.39617,0.343 -0.17072,0.18865 -0.27182,0.34299 -0.22466,0.34299 0.0472,0 0.22544,-0.15434 0.39617,-0.34299 z m -7.46019,-0.55967 c 0,-0.0248 -1.09973,-1.12458 -2.44385,-2.44385 l -2.44385,-2.39868 2.39868,2.44385 c 2.22827,2.27023 2.48902,2.52152 2.48902,2.39868 z m 8.48918,-0.29783 c 0.17072,-0.18864 0.27182,-0.34299 0.22466,-0.34299 -0.0472,0 -0.22544,0.15435 -0.39617,0.34299 -0.17072,0.18865 -0.27182,0.343 -0.22466,0.343 0.0472,0 0.22544,-0.15435 0.39617,-0.343 z m 1.02899,-0.85749 c 0.17072,-0.18865 0.27182,-0.34299 0.22466,-0.34299 -0.0472,0 -0.22544,0.15434 -0.39617,0.34299 -0.17072,0.18865 -0.27182,0.343 -0.22466,0.343 0.0472,0 0.22544,-0.15435 0.39617,-0.343 z m 38.50464,-0.26117 c 0.18124,-0.21838 0.17062,-0.24347 -0.0648,-0.15315 -0.15483,0.0594 -0.28149,0.17694 -0.28149,0.26117 0,0.22054 0.0993,0.18957 0.34625,-0.10802 z m -37.56141,-0.51057 c 0.22154,-0.23581 0.3642,-0.42875 0.31704,-0.42875 -0.0472,0 -0.267,0.19294 -0.48853,0.42875 -0.22153,0.23581 -0.36421,0.42875 -0.31704,0.42875 0.0472,0 0.267,-0.19294 0.48853,-0.42875 z m 39.53038,-0.25725 c 0.21619,-0.0929 0.24791,-0.14739 0.0858,-0.14739 -0.14148,0 -0.41159,0.0663 -0.60024,0.14739 -0.21619,0.0929 -0.2479,0.14739 -0.0857,0.14739 0.14149,0 0.4116,-0.0663 0.60024,-0.14739 z m 0.8968,-0.27511 c -0.057,-0.057 -0.2049,-0.0631 -0.32871,-0.0135 -0.1368,0.0548 -0.0962,0.0954 0.10362,0.10361 0.18078,0.007 0.28208,-0.0331 0.22509,-0.0901 z m -39.22669,-0.49663 c 0.22153,-0.23581 0.3642,-0.42875 0.31704,-0.42875 -0.0472,0 -0.267,0.19294 -0.48854,0.42875 -0.22153,0.23581 -0.36419,0.42874 -0.31703,0.42874 0.0472,0 0.267,-0.19293 0.48853,-0.42874 z m 40.64513,0.0603 c 0.16461,-0.0964 0.072,-0.11065 -0.25726,-0.0395 -0.28297,0.0612 -0.63025,0.17906 -0.77174,0.26195 -0.16462,0.0965 -0.072,0.11066 0.25725,0.0395 0.28297,-0.0612 0.63025,-0.17907 0.77175,-0.26196 z m 0.85748,-0.3175 c 0.14149,-0.0914 0.18008,-0.16624 0.0858,-0.16624 -0.0943,0 -0.28725,0.0748 -0.42874,0.16624 -0.14149,0.0914 -0.18008,0.16625 -0.0857,0.16625 0.0943,0 0.28726,-0.0748 0.42874,-0.16625 z m -40.47362,-0.60024 c 0.22153,-0.23582 0.3642,-0.42875 0.31704,-0.42875 -0.0472,0 -0.267,0.19293 -0.48854,0.42875 -0.22153,0.23581 -0.36419,0.42875 -0.31703,0.42875 0.0472,0 0.267,-0.19294 0.48853,-0.42875 z m 41.56742,0.16919 c 0.34165,-0.14274 0.62119,-0.29813 0.62119,-0.3453 0,-0.0881 -1.20476,0.38047 -1.34889,0.52459 -0.14395,0.14395 0.095,0.0851 0.7277,-0.17929 z m -40.36693,-1.19818 c 0.22154,-0.23582 0.3642,-0.42875 0.31704,-0.42875 -0.0472,0 -0.26701,0.19293 -0.48853,0.42875 -0.22154,0.23581 -0.36421,0.42875 -0.31704,0.42875 0.0472,0 0.267,-0.19294 0.48853,-0.42875 z m -18.69332,-0.14161 c 0,-0.0307 -0.21223,-0.24294 -0.47162,-0.47162 l -0.47162,-0.41576 0.41576,0.47162 c 0.3886,0.4408 0.52748,0.55027 0.52748,0.41576 z m -0.85749,-1.02899 c 0,-0.0307 -0.21223,-0.24295 -0.47162,-0.47162 l -0.47163,-0.41576 0.41578,0.47162 c 0.38859,0.4408 0.52747,0.55027 0.52747,0.41576 z m -0.83561,-4.87472 c 0.21331,-0.27201 0.20725,-0.27807 -0.0648,-0.0648 -0.16506,0.12946 -0.30012,0.26451 -0.30012,0.30012 0,0.14115 0.14083,0.0503 0.36488,-0.23537 z m 0.68599,-0.85749 c 0.21332,-0.27201 0.20725,-0.27808 -0.0648,-0.0648 -0.16506,0.12945 -0.30012,0.26451 -0.30012,0.30012 0,0.14115 0.14084,0.0503 0.36488,-0.23537 z m 0.74986,-0.90036 c 0.17073,-0.18866 0.27182,-0.343 0.22466,-0.343 -0.0472,0 -0.22543,0.15434 -0.39616,0.343 -0.17072,0.18864 -0.27182,0.34299 -0.22466,0.34299 0.0472,0 0.22544,-0.15435 0.39616,-0.34299 z m 0.94324,-1.11475 c 0.22154,-0.23581 0.3642,-0.42874 0.31704,-0.42874 -0.0472,0 -0.267,0.19293 -0.48853,0.42874 -0.22154,0.23582 -0.3642,0.42875 -0.31704,0.42875 0.0472,0 0.267,-0.19293 0.48853,-0.42875 z m 0.8575,-1.02899 c 0.22153,-0.23581 0.3642,-0.42874 0.31704,-0.42874 -0.0472,0 -0.26701,0.19293 -0.48854,0.42874 -0.22154,0.23582 -0.3642,0.42875 -0.31704,0.42875 0.0472,0 0.267,-0.19293 0.48854,-0.42875 z m 0.85749,-1.02899 c 0.22153,-0.23581 0.36419,-0.42874 0.31703,-0.42874 -0.0472,0 -0.267,0.19293 -0.48853,0.42874 -0.22153,0.23582 -0.3642,0.42875 -0.31703,0.42875 0.0472,0 0.26699,-0.19293 0.48853,-0.42875 z m 0.77174,-0.94324 c 0.17072,-0.18865 0.27182,-0.34299 0.22466,-0.34299 -0.0472,0 -0.22543,0.15434 -0.39616,0.34299 -0.17072,0.18865 -0.27182,0.343 -0.22466,0.343 0.0472,0 0.22543,-0.15435 0.39616,-0.343 z m 0.94324,-1.11474 c 0.22153,-0.23581 0.3642,-0.42874 0.31704,-0.42874 -0.0472,0 -0.267,0.19293 -0.48853,0.42874 -0.22154,0.23582 -0.36421,0.42875 -0.31704,0.42875 0.0472,0 0.267,-0.19293 0.48853,-0.42875 z m 0.77174,-0.94324 c 0.17073,-0.18865 0.27182,-0.34299 0.22466,-0.34299 -0.0472,0 -0.22543,0.15434 -0.39615,0.34299 -0.17073,0.18865 -0.27183,0.343 -0.22466,0.343 0.0472,0 0.22543,-0.15435 0.39615,-0.343 z m 0.8889,-1.57564 c -0.0548,-0.13681 -0.0954,-0.0962 -0.10361,0.10361 -0.007,0.18079 0.0331,0.28209 0.0901,0.22509 0.057,-0.057 0.0631,-0.2049 0.0135,-0.3287 z m 5.5027,0.1166 c 2.36546,-0.55771 4.09049,-1.96008 5.16683,-4.2004 l 0.61796,-1.28624 0.0574,-4.58758 0.0574,-4.58759 h 2.8152 c 1.89127,0 2.8152,-0.0604 2.8152,-0.18413 0,-0.10127 -0.18809,-0.74447 -0.41799,-1.42932 -0.4574,-1.36255 -0.95258,-3.93151 -0.95344,-4.94636 l -5.2e-4,-0.64312 h -15.60635 c -14.75044,0 -15.606106,0.0165 -15.602145,0.30012 0.0086,0.6123 0.368905,1.85373 0.769735,2.65177 0.64603,1.28622 1.27071,1.97562 2.60378,2.87358 1.61999,1.09122 2.8585,1.37746 5.95993,1.37746 h 2.32425 v 2.73422 c 0,2.60393 0.0254,2.81027 0.53387,4.33033 0.29363,0.87787 0.6795,1.88245 0.85749,2.23241 0.37486,0.73703 0.43112,1.28802 0.0664,0.64995 -0.37305,-0.65259 -0.30408,-0.24963 0.0892,0.52133 0.36212,0.70979 0.65811,0.96468 0.3406,0.29329 -0.16718,-0.35351 -0.1569,-0.35099 0.12259,0.03 0.41619,0.56738 1.66668,2.929 1.32353,2.49957 -0.15074,-0.18865 -0.46216,-0.70957 -0.69203,-1.15761 -0.22988,-0.44804 -0.45681,-0.81462 -0.5043,-0.81462 -0.0475,0 0.0706,0.30764 0.26242,0.68364 0.4296,0.84208 1.45062,2.41843 1.32606,2.04731 -0.0761,-0.22678 0.0209,-0.21503 0.60307,0.073 1.5591,0.77138 3.29471,0.95611 5.06391,0.53899 z m 66.49357,-0.11291 c 0.50235,-0.16824 0.70791,-0.34317 0.77296,-0.65774 0.0829,-0.40077 0.71638,-1.70004 1.56381,-3.20727 0.48655,-0.86538 2.18381,-5.18783 2.32097,-5.91091 0.0596,-0.3142 0.17323,-0.65459 0.2525,-0.75642 0.0793,-0.10184 0.18906,-0.87358 0.24399,-1.71499 0.16647,-2.54981 -0.11528,-2.30116 2.61099,-2.3041 2.52393,-0.003 3.99839,-0.24982 5.22518,-0.87568 0.98821,-0.50415 2.55826,-2.04235 3.09932,-3.03643 0.41149,-0.75606 0.97601,-2.53002 0.97601,-3.06707 0,-0.17901 -2.98952,-0.22122 -15.66845,-0.22122 h -15.66843 l -0.12019,1.32627 c -0.14663,1.61802 -0.47985,3.22666 -0.94757,4.5744 -0.19336,0.55713 -0.35155,1.07619 -0.35155,1.15347 0,0.0773 1.29267,0.16166 2.8726,0.18752 l 2.8726,0.047 0.0886,4.5447 c 0.0796,4.0845 0.12464,4.63318 0.44497,5.41833 0.95654,2.34449 2.73636,3.90857 5.25466,4.61766 1.04161,0.29329 3.10455,0.23496 4.15707,-0.11754 z m -35.62714,-1.80473 c -0.16507,-0.0431 -0.43518,-0.0431 -0.60024,0 -0.16507,0.0432 -0.03,0.0784 0.30012,0.0784 0.33013,0 0.46519,-0.0353 0.30012,-0.0784 z m -3.94804,-0.4999 c -0.057,-0.057 -0.2049,-0.0631 -0.32871,-0.0135 -0.13681,0.0548 -0.0962,0.0954 0.10363,0.10361 0.18078,0.007 0.28207,-0.0331 0.22508,-0.0901 z m -0.68599,-0.17149 c -0.057,-0.057 -0.20491,-0.0631 -0.32871,-0.0136 -0.13681,0.0548 -0.0962,0.0954 0.10361,0.10362 0.18079,0.007 0.28208,-0.0331 0.2251,-0.0901 z m -0.686,-0.1715 c -0.057,-0.057 -0.20491,-0.0631 -0.3287,-0.0136 -0.13681,0.0548 -0.0962,0.0954 0.10361,0.10362 0.18078,0.007 0.28208,-0.0331 0.22509,-0.0901 z m 9.83902,-0.58596 c 2.72622,-0.55543 4.78958,-1.43848 7.01428,-3.00185 2.81914,-1.98111 4.80811,-4.22544 6.35483,-7.1707 1.54893,-2.94949 2.21898,-5.75441 2.21898,-9.28893 0,-5.48036 -1.74783,-9.8534 -5.47301,-13.6933 -4.2922,-4.42443 -8.28319,-6.11396 -14.44363,-6.11453 -5.90311,-5.2e-4 -9.90833,1.63676 -13.8889,5.67772 -3.10387,3.15096 -4.88027,6.54583 -5.56363,10.63262 -0.4198,2.51062 -0.2728,6.29855 0.33541,8.64244 1.40149,5.40105 5.32199,10.24473 10.30888,12.73638 2.17112,1.08478 3.73486,1.51871 7.20294,1.99876 1.02548,0.14196 4.32494,-0.0908 5.93385,-0.41861 z m 4.2703,-0.33942 c 0.14149,-0.0914 0.18008,-0.16624 0.0858,-0.16624 -0.0943,0 -0.28726,0.0748 -0.42875,0.16624 -0.14148,0.0914 -0.18007,0.16625 -0.0857,0.16625 0.0943,0 0.28726,-0.0748 0.42874,-0.16625 z m -48.17535,-2.41885 c -0.18395,-0.41463 -0.33992,-0.69754 -0.34658,-0.62871 -0.0196,0.20303 0.53905,1.52458 0.61319,1.45044 0.0373,-0.0373 -0.0827,-0.4071 -0.26661,-0.82173 z m -0.60317,-1.62633 c -0.13522,-0.36906 -0.25129,-0.58607 -0.25793,-0.48224 -0.0168,0.26237 0.35558,1.30144 0.43717,1.21986 0.0366,-0.0366 -0.044,-0.36856 -0.17924,-0.73762 z m 26.82672,0.73847 c 0,-0.0265 -0.48234,-0.50887 -1.07186,-1.07187 l -1.07186,-1.02361 1.02362,1.07186 c 0.95086,0.99567 1.1201,1.15034 1.1201,1.02362 z m 31.10846,-4.61205 c 0.44077,-0.7748 0.13082,-0.43047 -0.64437,0.71583 -0.46106,0.6818 -0.50513,0.79237 -0.159,0.39891 0.26339,-0.29938 0.62489,-0.80101 0.80337,-1.11474 z m -58.62173,-2.4869 c -0.0668,-0.17412 -0.66551,-0.22724 -2.56124,-0.22724 -2.9592,0 -4.09981,-0.28314 -5.74061,-1.42501 -1.74826,-1.21664 -2.782374,-2.7634 -3.146413,-4.70616 -0.101622,-0.5423 -0.210874,-1.08247 -0.24279,-1.20038 -0.04213,-0.15575 -0.59883,-0.21437 -2.035638,-0.21437 h -1.977612 v 0.99123 c 0,1.00735 0.407007,4.63959 0.65204,5.81893 0.128923,0.62052 0.16983,0.6524 0.984602,0.76717 0.765381,0.10782 5.210351,0.52889 10.539731,0.99843 3.04192,0.268 3.08681,0.27995 3.08792,0.82154 5.2e-4,0.25512 0.097,0.77255 0.21438,1.14984 0.20773,0.66772 0.21474,0.64292 0.26312,-0.93037 0.0274,-0.889 0.0104,-1.71863 -0.0375,-1.84361 z m -0.78396,1.65925 c 0,-0.0943 -0.0817,-0.1715 -0.18162,-0.1715 -0.0999,0 -0.13392,0.0772 -0.0756,0.1715 0.0583,0.0943 0.14002,0.17149 0.18162,0.17149 0.0416,0 0.0756,-0.0772 0.0756,-0.17149 z m 84.73423,-0.1715 c 0.5833,0 0.83024,-0.0661 0.80059,-0.21437 -0.0279,-0.13932 0.19733,-0.22456 0.64312,-0.24346 0.63791,-0.027 0.64993,-0.0195 0.1715,0.10833 -0.4881,0.13037 -0.4771,0.13846 0.21437,0.15771 0.49982,0.0139 0.71539,-0.0471 0.68599,-0.19409 -0.0298,-0.14875 0.24581,-0.22084 0.90037,-0.23552 l 0.94324,-0.0211 -0.85749,0.12284 -0.85749,0.12283 1.07186,0.027 c 0.77711,0.0195 1.06008,-0.032 1.02899,-0.18743 -0.0279,-0.1396 0.19642,-0.2237 0.64312,-0.24113 l 0.68599,-0.0268 -0.60024,0.1328 -0.60024,0.13281 0.72887,0.0226 c 0.50076,0.0155 0.71545,-0.0445 0.68599,-0.1918 -0.0293,-0.14635 0.22924,-0.22158 0.81461,-0.23706 l 0.8575,-0.0227 -0.77174,0.12555 -0.77175,0.12556 0.98611,0.0257 c 0.708,0.0185 0.97404,-0.0347 0.94325,-0.18861 -0.0279,-0.1396 0.19642,-0.22371 0.64312,-0.24113 l 0.68599,-0.0268 -0.60024,0.1328 c -0.57077,0.12628 -0.55813,0.13325 0.25725,0.14184 0.47161,0.005 0.76054,-0.0301 0.64205,-0.0778 -0.44724,-0.1803 0.009,-0.39963 0.78292,-0.37622 l 0.8045,0.0243 -0.68599,0.12283 -0.686,0.12283 0.82589,0.0243 c 0.45425,0.0134 0.97437,-0.0551 1.15585,-0.15224 0.43765,-0.23423 0.85214,-1.06159 0.83089,-1.65851 l -0.0172,-0.48014 -0.13729,0.42874 c -0.12626,0.39427 -0.1387,0.39884 -0.15441,0.0569 -0.009,-0.20451 0.0322,-0.50038 0.0925,-0.6575 0.0874,-0.22786 0.13896,-0.23937 0.25463,-0.0569 0.0853,0.13465 0.13458,-0.3004 0.11967,-1.05748 l -0.0253,-1.28623 -0.12053,0.94324 -0.1205,0.94324 0.0198,-1.02899 c 0.0139,-0.72365 0.0834,-1.01627 0.23421,-0.98612 0.14984,0.03 0.20758,-0.20234 0.19181,-0.77174 -0.022,-0.79566 -0.0255,-0.80065 -0.14894,-0.21437 l -0.12634,0.60024 -0.0226,-0.71875 c -0.0221,-0.70365 0.20587,-1.12412 0.37798,-0.69718 0.0478,0.1185 0.0838,-0.17043 0.0801,-0.64205 -0.006,-0.73615 -0.0253,-0.78468 -0.13768,-0.343 l -0.1309,0.5145 -0.0203,-0.47783 -0.0203,-0.47784 -1.67011,0.0491 -1.6701,0.0491 -0.13214,0.94324 c -0.26141,1.86594 -1.79995,4.22265 -3.43194,5.25706 -1.5439,0.97856 -2.26481,1.14956 -5.27212,1.25058 l -2.82971,0.0951 -0.0524,0.72331 -0.0524,0.72331 1.1672,-0.0716 c 0.94427,-0.0579 1.01299,-0.0473 0.35979,0.0556 -0.44408,0.0699 -0.86854,0.1941 -0.94325,0.27598 -0.0752,0.0824 0.005,0.0984 0.17833,0.0358 0.17278,-0.0622 0.69371,-0.11308 1.15761,-0.11308 z M 170.58115,140.903 c 0.24278,-0.47908 0.41772,-0.93133 0.38877,-1.00499 -0.029,-0.0737 -0.26059,0.31831 -0.51475,0.87107 -0.56742,1.23401 -0.47907,1.32793 0.12598,0.13392 z m -38.14434,-1.98867 c -0.20216,-0.34766 -0.25098,-0.23638 -0.0855,0.19489 0.0588,0.15326 0.14306,0.24254 0.18721,0.19838 0.0442,-0.0441 -0.001,-0.22112 -0.10172,-0.39327 z m -0.47111,-1.57778 c -0.16074,-0.57814 -0.32408,-1.01934 -0.36297,-0.98044 -0.0389,0.0389 0.0617,0.5428 0.22363,1.11978 0.16189,0.57698 0.32522,1.01817 0.36297,0.98044 0.0377,-0.0377 -0.0629,-0.54164 -0.22363,-1.11978 z m -0.45996,-1.86179 c -0.0435,-0.16686 -0.0819,-0.0719 -0.0854,0.21112 -0.003,0.28297 0.0321,0.41949 0.0791,0.30338 0.047,-0.11611 0.0498,-0.34763 0.006,-0.5145 z m -0.17213,-1.20374 c -0.0432,-0.16508 -0.0784,-0.03 -0.0784,0.30012 0,0.33013 0.0353,0.46519 0.0784,0.30012 0.0431,-0.16507 0.0431,-0.43518 0,-0.60024 z m -0.16869,-1.45774 c -0.0409,-0.21223 -0.0743,-0.0386 -0.0743,0.38587 0,0.42446 0.0335,0.5981 0.0743,0.38587 0.0409,-0.21223 0.0409,-0.55951 0,-0.77174 z m -36.00005,-3.25303 0.03591,2.4493 2.015103,-0.0483 2.015103,-0.0483 0.05121,-0.5145 c 0.164529,-1.65238 1.219214,-3.68831 2.488334,-4.80335 1.7828,-1.56636 3.67018,-2.13448 7.10721,-2.13936 l 2.10086,-0.003 v -2.25047 c 0,-1.99602 -0.0296,-2.22597 -0.26117,-2.03373 -0.22157,0.18388 -0.24343,0.16756 -0.14418,-0.10762 0.0644,-0.17841 0.0637,-0.27698 -0.001,-0.21905 -0.0651,0.0579 -0.19068,0.36663 -0.27905,0.68599 -0.14466,0.52279 -0.13628,0.54844 0.084,0.25737 0.22185,-0.29309 0.23526,-0.26104 0.14365,0.34299 -0.0556,0.36647 -0.16547,0.7369 -0.24419,0.82319 -0.0787,0.0863 -0.5896,0.17817 -1.13528,0.20418 -0.82104,0.0391 -0.88863,0.0234 -0.39191,-0.0914 0.59662,-0.13789 0.59533,-0.13887 -0.21437,-0.16131 -0.56941,-0.0158 -0.80171,0.0419 -0.77175,0.1918 0.0279,0.1396 -0.19641,0.22371 -0.64311,0.24113 l -0.686,0.0268 0.60025,-0.13281 0.60025,-0.1328 -0.72888,-0.0226 c -0.50075,-0.0155 -0.71544,0.0445 -0.68599,0.1918 0.0293,0.14634 -0.22924,0.22157 -0.81462,0.23706 l -0.85748,0.0227 0.77173,-0.12555 0.77175,-0.12555 -0.98612,-0.0258 c -0.708,-0.0185 -0.97402,0.0347 -0.94324,0.18862 0.027,0.13468 -0.18027,0.22539 -0.55737,0.24401 l -0.60024,0.0297 0.51449,-0.13798 c 0.48853,-0.13101 0.47771,-0.139 -0.21438,-0.15827 -0.49982,-0.0139 -0.71538,0.0471 -0.68598,0.19408 0.0279,0.1396 -0.19642,0.22371 -0.64312,0.24114 l -0.68599,0.0268 0.60023,-0.1328 c 0.59189,-0.13096 0.5889,-0.13312 -0.21436,-0.15538 -0.5694,-0.0158 -0.80172,0.0419 -0.77175,0.19179 0.027,0.13468 -0.18026,0.2254 -0.55736,0.24402 l -0.600237,0.0296 0.514487,-0.13798 0.51449,-0.13797 -0.64311,-0.0203 c -0.431162,-0.0136 -0.628994,0.0504 -0.60024,0.19409 0.02696,0.13468 -0.180279,0.22539 -0.557373,0.24401 l -0.600243,0.0296 0.514495,-0.13797 c 0.488529,-0.13101 0.477705,-0.139 -0.21438,-0.15827 -0.49982,-0.0139 -0.715386,0.0471 -0.685985,0.19408 0.0256,0.12798 -0.164476,0.22793 -0.47163,0.24802 -0.49343,0.0323 -0.496943,0.0277 -0.08574,-0.11153 0.410066,-0.13885 0.404466,-0.14591 -0.128625,-0.16227 -0.331261,-0.0101 -0.539976,0.0612 -0.514495,0.17585 0.02359,0.10611 -0.0643,0.23188 -0.195376,0.27949 -0.145912,0.053 -0.191836,0.0115 -0.118494,-0.10719 0.132631,-0.2146 -0.06841,-0.25016 -0.49306,-0.0872 -0.378188,0.14512 -0.783154,0.97228 -0.762334,1.55706 l 0.01711,0.48014 0.145167,-0.42875 c 0.139223,-0.41119 0.143786,-0.40768 0.111526,0.0857 -0.02009,0.30715 -0.12003,0.49722 -0.248007,0.47162 -0.138925,-0.0278 -0.208359,0.15329 -0.197281,0.5145 0.01633,0.53309 0.0234,0.53869 0.162266,0.12862 0.139223,-0.4112 0.143786,-0.40769 0.111526,0.0858 -0.02009,0.30714 -0.12003,0.49722 -0.248008,0.47162 -0.16563,-0.0331 -0.206219,0.59085 -0.178496,2.74397 l 0.03591,2.78685 0.09974,-2.57247 0.09974,-2.57248 0.03591,2.4493 z m 35.75883,0.50905 c 0.084,-1.80726 0.36024,-3.62419 0.7266,-4.77847 0.0932,-0.29371 -0.0668,-0.31743 -2.43993,-0.36183 l -2.53969,-0.0475 -0.0953,-4.54471 c -0.10388,-4.95531 -0.15503,-5.24557 -1.21549,-6.89816 -1.38718,-2.16173 -3.75626,-3.42411 -6.40666,-3.41382 -1.89196,0.007 -3.98795,0.7677 -4.62555,1.67801 -0.42675,0.60928 -1.93784,3.74562 -2.42465,5.0325 -0.45912,1.21368 -0.49167,1.47974 -0.5769,4.71621 l -0.0903,3.42997 -2.91547,0.0858 -2.91547,0.0857 -1.30835,0.6248 c -1.481,0.70725 -2.46614,1.52464 -3.23313,2.6826 -0.54517,0.82306 -1.20371,2.68267 -1.20371,3.3991 v 0.41068 h 15.58319 15.5832 z m 41.74838,0 c -0.0361,-0.40087 -0.0657,-0.0729 -0.0657,0.72887 0,0.80176 0.0296,1.12975 0.0657,0.72887 0.0361,-0.40088 0.0361,-1.05686 0,-1.45774 z m 31.50701,1.94369 c 0.16873,-0.27301 -0.27224,-1.94851 -0.77751,-2.95421 -0.72367,-1.44038 -1.97357,-2.62825 -3.54348,-3.36764 l -1.32959,-0.6262 -2.86584,-0.066 c -1.88,-0.0433 -2.92003,-0.13386 -3.02341,-0.26324 -0.0867,-0.10846 -0.19236,-1.23906 -0.23487,-2.51244 -0.0489,-1.46272 -0.0231,-2.10999 0.07,-1.75785 0.081,0.30655 0.18174,0.55737 0.22384,0.55737 0.13518,0 -0.10549,-1.07722 -0.54842,-2.45473 -0.23695,-0.737 -0.46131,-1.30954 -0.49853,-1.27232 -0.0372,0.0372 0.12609,0.63735 0.36291,1.33361 0.23681,0.69627 0.36256,1.19163 0.27946,1.10082 -0.0831,-0.0908 -0.44399,-1.01404 -0.80194,-2.0516 -0.35796,-1.03757 -0.83116,-2.30125 -1.05156,-2.80819 -0.40562,-0.93287 -0.53429,-1.52253 -0.22926,-1.05053 0.0914,0.14149 0.16743,0.17553 0.16887,0.0757 0.002,-0.0999 -0.11886,-0.3314 -0.26735,-0.5145 -0.14846,-0.18309 -0.21372,-0.22451 -0.14498,-0.092 0.0833,0.1606 0.0574,0.19914 -0.0777,0.11566 -0.11142,-0.0689 -0.50995,-0.73653 -0.88561,-1.48369 -0.37567,-0.74716 -0.74017,-1.34526 -0.81003,-1.32911 -0.0698,0.0161 -0.58187,-0.10858 -1.13787,-0.27717 -0.75781,-0.22979 -1.4062,-0.28924 -2.58992,-0.23746 -1.3518,0.0591 -1.74102,0.1488 -2.70461,0.62318 -1.33043,0.65497 -2.71311,1.84788 -3.29735,2.84481 -0.963,1.64323 -1.01009,1.93165 -1.10906,6.79159 l -0.0926,4.54471 -2.78714,0.0858 c -1.63731,0.0504 -2.78702,0.0209 -2.78685,-0.0715 1.5e-4,-0.0865 -0.0399,-0.11696 -0.0891,-0.0678 -0.0492,0.0492 -0.0154,0.27428 0.0749,0.5002 0.14605,0.36511 0.16673,0.37264 0.18606,0.0678 0.0188,-0.29678 0.0449,-0.28522 0.19325,0.0858 0.23984,0.59955 0.66838,2.68994 0.64396,3.14106 -0.0157,0.28998 -0.0499,0.25837 -0.15122,-0.13983 -0.13028,-0.51206 -0.131,-0.51145 -0.1512,0.12862 -0.0135,0.43116 0.0504,0.62898 0.19408,0.60024 0.15551,-0.0311 0.22797,0.36912 0.26392,1.45774 l 0.0496,1.50061 h 15.58953 c 9.26028,0 15.62899,-0.0638 15.6867,-0.15717 z m 3.86758,-0.54473 c 0,-1.23415 -0.61846,-7.86265 -0.74545,-7.98964 -0.0408,-0.0408 -2.21228,-0.25811 -5.68574,-0.56906 -0.94324,-0.0845 -3.06553,-0.27448 -4.7162,-0.4223 -1.65068,-0.14782 -3.21345,-0.29292 -3.47285,-0.32243 l -0.47162,-0.0537 v 1.14782 1.14783 l 2.61535,0.0856 c 2.97003,0.0972 4.15268,0.39695 5.75005,1.45722 1.52826,1.0144 2.9897,3.29278 3.21928,5.01884 0.16699,1.25535 0.0833,1.20166 1.87256,1.20166 h 1.63462 z m -35.72958,-4.14293 c -0.0476,-0.11791 -0.0865,-0.0214 -0.0865,0.21437 0,0.23581 0.0389,0.33228 0.0865,0.21438 0.0476,-0.11791 0.0476,-0.31085 0,-0.42875 z m -0.17149,-0.85749 c -0.0476,-0.11791 -0.0865,-0.0214 -0.0865,0.21437 0,0.23581 0.039,0.33228 0.0865,0.21437 0.0476,-0.1179 0.0476,-0.31084 0,-0.42874 z m -39.47294,-3.51727 c 0.83246,-1.82034 1.9991,-3.63105 3.01648,-4.68178 0.41632,-0.42998 0.56163,-0.54574 0.3229,-0.25725 -0.23873,0.28849 -0.58315,0.71746 -0.76538,0.95327 l -0.33132,0.42875 0.34744,-0.343 c 0.19109,-0.18865 0.91716,-0.99898 1.6135,-1.80073 1.07175,-1.234 1.1359,-1.33929 0.41795,-0.686 l -0.84814,0.77175 0.75097,-0.80076 c 0.41304,-0.44041 0.84045,-0.76642 0.9498,-0.72445 0.10936,0.042 0.4274,-0.17623 0.70677,-0.48486 l 0.50794,-0.56116 -0.5145,0.42812 -0.51449,0.42812 0.42874,-0.48777 c 0.53517,-0.60883 3.04441,-2.28945 4.24458,-2.84289 l 0.90037,-0.41518 V 94.754154 c 0,-14.768332 -0.0338,-17.12052 -0.24638,-17.12052 -0.15261,0 -0.26683,0.212125 -0.30012,0.55737 -0.0322,0.333665 -0.13979,0.540161 -0.26811,0.514495 -0.14701,-0.0294 -0.208,0.18617 -0.19409,0.685993 0.0191,0.68404 0.0283,0.697225 0.15121,0.214373 0.13028,-0.511973 0.13102,-0.512252 0.15121,-0.0569 0.0294,0.66232 -0.15679,1.095394 -0.34395,0.800149 -0.0903,-0.142473 -0.13834,0.06234 -0.12734,0.542989 0.0163,0.713761 0.0281,0.733088 0.15564,0.257248 l 0.13797,-0.514496 -0.0296,0.600245 c -0.0186,0.377101 -0.10933,0.584306 -0.24401,0.55737 -0.15391,-0.03078 -0.20711,0.235247 -0.18862,0.943241 l 0.0257,0.986115 0.12554,-0.771743 0.12556,-0.771742 -0.0227,0.857492 c -0.0155,0.58538 -0.0907,0.843887 -0.23705,0.814617 -0.15209,-0.03042 -0.20731,0.218722 -0.19005,0.857492 l 0.0244,0.900366 0.1288,-0.685992 0.1288,-0.685995 -0.0245,0.771743 c -0.0164,0.516112 -0.0955,0.757541 -0.23889,0.728868 -0.15867,-0.03174 -0.20688,0.302459 -0.18554,1.286238 l 0.0288,1.329112 0.11384,-1.02899 0.11383,-1.02899 0.0288,1.147492 c 0.0266,1.058462 -0.16498,1.638736 -0.37173,1.12593 -0.0478,-0.118493 -0.0918,0.05467 -0.0978,0.384803 -0.008,0.457484 0.0303,0.539062 0.16226,0.342996 0.12653,-0.187962 0.16046,-0.04939 0.12599,0.514495 l -0.0472,0.771743 -0.8575,0.109518 c -0.47162,0.06024 -1.08902,0.162945 -1.37199,0.228245 -0.38829,0.0896 -0.45139,0.0739 -0.25724,-0.06401 0.21701,-0.154162 0.2036,-0.182744 -0.0857,-0.182744 -0.18865,0 -0.45876,0.08327 -0.60025,0.185051 -0.21508,0.154717 -0.2066,0.168664 0.0518,0.08509 0.16997,-0.05498 0.2656,-0.02969 0.21251,0.05621 -0.0531,0.0859 -0.61661,0.327122 -1.25227,0.536061 -0.63566,0.208941 -2.12564,0.832348 -3.31106,1.385351 -2.01055,0.937928 -3.03085,1.310975 -2.0464,0.748211 0.23581,-0.134801 0.36336,-0.247829 0.28344,-0.251169 -0.20512,-0.0086 -2.88189,1.397103 -2.80564,1.473352 0.0345,0.03451 0.51965,-0.180879 1.0781,-0.478635 0.55844,-0.297757 0.96429,-0.484351 0.90188,-0.414655 -0.18256,0.20387 -2.75864,1.643338 -2.94093,1.643338 -0.1862,0 -2.5193,-1.848095 -2.5193,-1.995593 0,-0.05188 0.38897,0.23133 0.86436,0.629355 0.4754,0.398024 0.88819,0.694613 0.91733,0.659087 0.0876,-0.106787 -10.35442,-8.585301 -10.67759,-8.669811 -0.16441,-0.04299 -0.48744,0.08717 -0.71785,0.289252 -0.23039,0.202084 -0.32243,0.318404 -0.20452,0.258489 0.30725,-0.156134 0.26432,3.43e-4 -0.0758,0.276179 -0.19717,0.159932 -0.24889,0.166662 -0.16137,0.021 0.0708,-0.117904 0.0854,-0.214372 0.0323,-0.214372 -0.13698,0 -3.01076,2.42139 -3.01076,2.536807 0,0.0525 0.19293,-0.0858 0.42874,-0.307328 0.23581,-0.221533 0.42875,-0.365185 0.42875,-0.31923 0,0.04596 -0.24346,0.310228 -0.54102,0.587266 -0.29756,0.277039 -0.48594,0.407238 -0.41862,0.289334 0.26012,-0.455602 -0.2024,-0.180789 -0.91114,0.541372 -0.40795,0.41566 -0.69795,0.826559 -0.64446,0.913105 0.0535,0.08655 -0.49702,0.730435 -1.22335,1.43086 l -1.32061,1.273499 1.28621,-1.371987 1.28622,-1.371988 -1.41733,1.370439 c -0.77953,0.75374 -1.3832,1.459386 -1.34148,1.568104 0.0417,0.108715 -0.1308,0.379521 -0.38338,0.601791 l -0.45923,0.404129 0.42874,-0.509307 c 0.23581,-0.280118 0.29112,-0.403587 0.12291,-0.274375 -0.53185,0.408535 -2.03788,2.399571 -1.93768,2.561695 0.0528,0.08544 -0.0382,0.260564 -0.20222,0.389157 -0.27356,0.214461 -0.27873,0.205427 -0.0625,-0.109189 0.12967,-0.18865 0.0332,-0.126467 -0.21437,0.138185 -0.84332,0.901474 -0.98176,0.683164 4.99648,7.87936 1.5476,1.8629 2.85944,3.38709 2.9152,3.38709 0.0557,0 -0.0536,-0.17364 -0.24299,-0.38587 -0.27941,-0.31307 -2.29778,-2.74105 -4.24135,-5.10207 l -0.35294,-0.42875 0.36758,0.343 c 0.72888,0.68014 5.36301,6.35061 5.36587,6.56584 10e-4,0.12123 -0.126,0.41716 -0.28357,0.65764 l -0.28648,0.43723 0.67235,-0.29342 c 3.17368,-1.38503 6.75806,-0.77717 9.06588,1.53743 1.3168,1.32067 2.09926,2.86517 2.32246,4.58429 0.09,0.69292 0.16596,2.78404 0.16887,4.64694 l 0.005,3.38709 2.44385,-0.002 2.44386,-0.002 0.68552,-1.49903 z m -23.75205,-21.30709 c -0.39487,-0.47163 -0.67935,-0.8575 -0.63219,-0.8575 0.0472,0 0.40882,0.38587 0.80368,0.8575 0.39487,0.47162 0.67935,0.85749 0.63219,0.85749 -0.0472,0 -0.40882,-0.38587 -0.80368,-0.85749 z m -1.13104,-1.41487 -0.3267,-0.385868 0.38587,0.326708 c 0.36262,0.30701 0.46394,0.44503 0.3267,0.44503 -0.0325,0 -0.20618,-0.17364 -0.38587,-0.38587 z m -0.6079,-0.771739 c -0.49339,-0.59564 -0.70243,-0.900367 -0.61765,-0.900367 0.0475,0 0.29242,0.27011 0.54422,0.600245 0.46729,0.612642 0.52388,0.843901 0.0734,0.300122 z m 0.53656,-3.470462 c 0.29779,-0.375988 0.631,-0.738969 0.74047,-0.806627 0.10948,-0.06766 -0.0984,0.239969 -0.46193,0.683615 -0.36353,0.443644 -0.69674,0.806626 -0.74047,0.806626 -0.0438,0 0.16415,-0.307627 0.46193,-0.683614 z m 17.92346,-3.196014 -0.85748,-0.785603 0.90036,0.71935 c 0.77959,0.622854 1.02664,0.869297 0.8575,0.855382 -0.0236,-0.0019 -0.42875,-0.357048 -0.90038,-0.789129 z m -1.47071,-1.22245 -0.41576,-0.471619 0.47161,0.415764 c 0.25939,0.228673 0.47162,0.440902 0.47162,0.471621 0,0.134503 -0.13888,0.02503 -0.52747,-0.415766 z m -1.44475,-1.178527 -0.8575,-0.785603 0.90037,0.71935 c 0.77959,0.622855 1.02663,0.869298 0.85749,0.855381 -0.0236,-0.0019 -0.42875,-0.357046 -0.90036,-0.789128 z m -10.03266,0.02092 c 0.22153,-0.23581 0.44137,-0.428746 0.48853,-0.428746 0.0472,0 -0.0955,0.192936 -0.31703,0.428746 -0.22154,0.23581 -0.44137,0.428745 -0.48853,0.428745 -0.0472,0 0.0955,-0.192935 0.31703,-0.428745 z m 7.46625,-2.070073 c -0.84558,-0.703538 -1.61733,-1.368142 -1.71499,-1.476899 -0.26847,-0.298971 1.77202,1.299923 2.65216,2.078188 1.28501,1.13627 0.70034,0.761149 -0.93717,-0.601289 z m -5.40827,0.396346 c 0,-0.04032 0.40516,-0.411255 0.90036,-0.824292 0.49521,-0.413039 0.79204,-0.61514 0.65962,-0.449113 -0.26604,0.333584 -1.55998,1.389816 -1.55998,1.273405 z m 17.83057,35.115909 c 0,-0.0943 -0.0748,-0.0557 -0.16624,0.0857 -0.0914,0.14149 -0.16624,0.33443 -0.16624,0.42875 0,0.0943 0.0748,0.0557 0.16624,-0.0858 0.0914,-0.14148 0.16624,-0.33442 0.16624,-0.42874 z m 44.29299,-3.64434 c 0.0681,-3.81068 0.11375,-4.34838 0.44689,-5.25988 0.53708,-1.46957 1.10618,-2.36007 2.05105,-3.20944 2.28079,-2.05026 5.20907,-2.70453 8.03948,-1.79627 0.3212,0.10307 0.38214,0.0483 0.42875,-0.38507 0.0392,-0.36455 1.22417,-1.92825 4.25604,-5.61632 2.31094,-2.81112 4.33309,-5.276652 4.49369,-5.478973 0.28379,-0.357537 0.25974,-0.40828 -0.85707,-1.808895 -2.22876,-2.795125 -7.17302,-7.566708 -9.9464,-9.599001 l -0.6359,-0.465985 -3.42816,2.74692 c -1.88548,1.510804 -4.41996,3.598549 -5.63216,4.639431 l -2.204,1.89251 -3.20001,-1.644249 c -3.72623,-1.914639 -5.14984,-2.500141 -7.4427,-3.06104 -1.55444,-0.380255 -1.67066,-0.438309 -1.67618,-0.83733 -0.008,-0.557398 -0.56751,-6.344257 -0.95808,-9.90403 -0.16817,-1.532767 -0.36818,-2.786849 -0.44449,-2.786849 -0.0763,0 -0.13874,7.71352 -0.13874,17.141156 v 17.141145 l 1.41486,0.7358 c 2.64273,1.37435 5.5849,3.92942 7.52673,6.53643 0.96816,1.2998 2.72031,4.53499 2.72031,5.0228 0,0.19715 0.47117,0.24172 2.55511,0.24172 h 2.55514 z m -43.53394,2.05798 c 0.34238,-0.68385 0.58392,-1.24337 0.53676,-1.24337 -0.0958,0 -1.29055,2.32466 -1.29055,2.51103 0,0.20276 0.11142,0.0154 0.75379,-1.26766 z m -23.22008,-0.76822 c 0,-0.10038 -0.10897,-0.0837 -0.25724,0.0393 -0.14149,0.11742 -0.25725,0.24021 -0.25725,0.27286 0,0.0327 0.11576,0.0149 0.25725,-0.0393 0.14148,-0.0543 0.25724,-0.17708 0.25724,-0.27286 z m 24.4449,-1.37551 c 0.26438,-0.40088 0.3711,-0.63834 0.23715,-0.52768 -0.25756,0.21277 -0.91421,1.25654 -0.79051,1.25654 0.04,0 0.28897,-0.32798 0.55336,-0.72886 z m 33.17856,-1.89947 c 0,-0.0307 -0.21223,-0.24294 -0.47162,-0.47162 l -0.47162,-0.41576 0.41576,0.47162 c 0.3886,0.4408 0.52748,0.55027 0.52748,0.41576 z m -1.37199,-1.36707 c 0,-0.028 -0.32798,-0.35601 -0.72887,-0.72887 l -0.72886,-0.67792 0.67792,0.72886 c 0.63046,0.67784 0.77981,0.80768 0.77981,0.67793 z m 24.59649,-1.56475 c -0.25169,-0.62868 -0.48538,-1.11528 -0.51933,-1.08134 -0.034,0.034 0.14289,0.57742 0.39295,1.2077 0.25008,0.63029 0.48376,1.11689 0.51932,1.08134 0.0356,-0.0356 -0.14127,-0.57902 -0.39294,-1.2077 z m -49.5495,-1.86901 c 0.37645,-0.36329 -1.00559,0.51538 -1.51365,0.96235 -0.39346,0.34614 -0.28289,0.30207 0.39891,-0.15899 0.51878,-0.35083 1.02041,-0.71234 1.11474,-0.80336 z m 1.72876,-0.93189 c -0.0785,-0.0785 -1.12852,0.44216 -1.12852,0.55951 0,0.0432 0.26914,-0.0498 0.59809,-0.20664 0.32895,-0.15687 0.56765,-0.31566 0.53043,-0.35287 z m 45.99785,-0.9801 c -0.30085,-0.61007 -0.57529,-1.08093 -0.60989,-1.04634 -0.0767,0.0767 0.96026,2.15557 1.0752,2.15557 0.0449,0 -0.16447,-0.49915 -0.46531,-1.10923 z m -29.54778,0.59474 c -0.0583,-0.0943 -0.19791,-0.17032 -0.31025,-0.16888 -0.12272,0.002 -0.10157,0.069 0.053,0.16888 0.32947,0.21292 0.38884,0.21292 0.25725,0 z m -0.0857,-17.508887 c 0,-17.021663 0.003,-17.166646 0.343,-17.255589 0.18865,-0.04933 0.34842,-0.21575 0.35505,-0.369816 0.009,-0.216734 0.0454,-0.202506 0.15944,0.06288 0.13909,0.323674 0.14807,0.320623 0.15944,-0.05415 0.026,-0.85651 -0.83594,-1.593135 -1.82303,-1.55799 l -0.48014,0.01709 0.42875,0.145166 c 0.4112,0.139225 0.40768,0.14379 -0.0857,0.111529 -0.30714,-0.02008 -0.49722,-0.120033 -0.47162,-0.24801 0.0316,-0.157785 -0.28534,-0.206762 -1.20049,-0.185543 l -1.24337,0.02883 1.02899,0.118481 1.02899,0.118482 -1.11473,-0.01869 c -0.79269,-0.01329 -1.10236,-0.08062 -1.07187,-0.233061 0.0308,-0.153912 -0.23524,-0.207109 -0.94324,-0.188615 l -0.98611,0.02576 0.77174,0.125551 0.77174,0.125551 -0.85749,-0.02269 c -0.58538,-0.01548 -0.84389,-0.09071 -0.81462,-0.237059 0.0294,-0.147006 -0.18617,-0.207996 -0.68599,-0.194082 -0.68404,0.01904 -0.69723,0.02835 -0.21437,0.151208 l 0.51449,0.130916 -0.47162,0.02029 -0.47162,0.02029 v 17.664331 17.664327 l 1.07186,7.1e-4 c 1.34814,8.5e-4 3.67361,0.38396 5.01633,0.82647 0.56595,0.18652 1.08687,0.34683 1.15761,0.35625 0.0708,0.009 0.12863,-7.70753 0.12863,-17.148767 z m -13.45869,16.553727 c 1.11984,-0.2884 2.40731,-0.47489 3.72616,-0.53973 l 2.0151,-0.0991 V 92.871754 75.232657 h -0.55992 c -0.9768,0 -6.55066,0.519501 -7.0791,0.659794 -0.4306,0.114321 -0.51519,0.230008 -0.56039,0.766415 -0.0456,0.540832 -0.003,0.631771 0.30013,0.631771 0.34215,0 0.35346,0.08829 0.35697,2.786849 0.002,1.532766 3.4e-4,9.250193 -0.003,17.149836 -0.004,7.899648 0.0155,14.362988 0.0432,14.362988 0.0277,0 0.82033,-0.1983 1.76141,-0.44066 z m 11.86876,0.33705 c -0.057,-0.057 -0.20491,-0.0631 -0.32871,-0.0135 -0.13681,0.0548 -0.0962,0.0954 0.10362,0.10362 0.18078,0.007 0.28207,-0.0331 0.22509,-0.0901 z m -0.8968,-0.23938 c -0.18864,-0.0811 -0.53593,-0.14369 -0.77174,-0.13916 -0.38904,0.007 -0.3811,0.0204 0.0857,0.13916 0.71413,0.18171 1.10887,0.18171 0.68599,0 z m -1.50061,-0.28972 c -0.16506,-0.0431 -0.43517,-0.0431 -0.60024,0 -0.16507,0.0431 -0.03,0.0784 0.30012,0.0784 0.33014,0 0.46519,-0.0353 0.30012,-0.0784 z m -1.54348,-0.17821 c -0.35372,-0.037 -0.93252,-0.037 -1.28624,0 -0.35372,0.037 -0.0643,0.0673 0.64312,0.0673 0.70743,0 0.99683,-0.0303 0.64312,-0.0673 z m -38.83005,-1.14877 c 0.0517,-0.13459 -0.007,-0.3282 -0.12966,-0.43025 -0.17616,-0.14619 -0.20612,-0.0943 -0.14131,0.24471 0.0945,0.49464 0.14032,0.52598 0.27097,0.18554 z m 74.22347,-1.5989 c 0.21331,-0.27201 0.20726,-0.27807 -0.0647,-0.0648 -0.16507,0.12945 -0.30013,0.26451 -0.30013,0.30012 0,0.14115 0.14084,0.0503 0.36489,-0.23537 z m 0.85749,-1.02899 c 0.21331,-0.27201 0.20726,-0.27807 -0.0648,-0.0648 -0.16507,0.12945 -0.30012,0.26451 -0.30012,0.30012 0,0.14115 0.14083,0.0503 0.36488,-0.23537 z m 0.74986,-0.90037 c 0.17072,-0.18865 0.27182,-0.34299 0.22466,-0.34299 -0.0472,0 -0.22543,0.15434 -0.39616,0.34299 -0.17073,0.18865 -0.27183,0.343 -0.22466,0.343 0.0472,0 0.22543,-0.15435 0.39616,-0.343 z m 0.79363,-0.98611 c 0.2133,-0.27201 0.20725,-0.27808 -0.0648,-0.0648 -0.16506,0.12946 -0.30012,0.26451 -0.30012,0.30013 0,0.14115 0.14083,0.0503 0.36488,-0.23538 z m 0.74985,-0.90037 c 0.17073,-0.18865 0.27183,-0.343 0.22467,-0.343 -0.0472,0 -0.22544,0.15435 -0.39616,0.343 -0.17073,0.18865 -0.27183,0.343 -0.22467,0.343 0.0472,0 0.22544,-0.15435 0.39616,-0.343 z m 0.79363,-0.98611 c 0.21331,-0.27201 0.20726,-0.27808 -0.0648,-0.0648 -0.16507,0.12946 -0.30012,0.26451 -0.30012,0.30012 0,0.14115 0.14083,0.0503 0.36488,-0.23537 z m 0.74986,-0.90037 c 0.17073,-0.18865 0.27182,-0.343 0.22466,-0.343 -0.0472,0 -0.22543,0.15435 -0.39616,0.343 -0.17073,0.18865 -0.27182,0.343 -0.22466,0.343 0.0472,0 0.22544,-0.15435 0.39616,-0.343 z m 0.68599,-0.85749 c 0.17073,-0.18865 0.27183,-0.343 0.22467,-0.343 -0.0472,0 -0.22544,0.15435 -0.39616,0.343 -0.17073,0.18865 -0.27183,0.34299 -0.22466,0.34299 0.0472,0 0.22543,-0.15434 0.39615,-0.34299 z m 0.96513,-1.15762 c 0.21331,-0.272 0.20725,-0.27807 -0.0648,-0.0648 -0.16507,0.12945 -0.30012,0.26451 -0.30012,0.30012 0,0.14115 0.14083,0.0503 0.36488,-0.23537 z m 0.68599,-0.857486 c 0.21331,-0.272007 0.20726,-0.278073 -0.0647,-0.06475 -0.16507,0.129457 -0.30012,0.26451 -0.30012,0.300124 0,0.14115 0.14083,0.0503 0.36488,-0.235373 z m -0.0219,-2.846017 c 0,-0.03254 -0.17365,-0.206186 -0.38587,-0.385872 l -0.38588,-0.326702 0.32671,0.385871 c 0.30701,0.362623 0.44504,0.463945 0.44504,0.326703 z m -0.8575,-1.023485 c 0,-0.02951 -0.25081,-0.280332 -0.55736,-0.55737 l -0.55738,-0.503706 0.50371,0.557369 c 0.46953,0.519548 0.61103,0.636199 0.61103,0.503707 z m -65.85537,-0.373438 c 0,-0.02608 -0.19361,-0.08442 -0.43025,-0.129655 -0.33902,-0.0648 -0.3909,-0.03485 -0.24471,0.141311 0.14995,0.180674 0.67496,0.171607 0.67496,-0.01166 z m 45.79007,-1.202133 c 0.22152,-0.235811 0.36419,-0.428746 0.31703,-0.428746 -0.0472,0 -0.267,0.192935 -0.48853,0.428746 -0.22152,0.23581 -0.36419,0.428745 -0.31703,0.428745 0.0472,0 0.26701,-0.192935 0.48853,-0.428745 z m 19.03632,0.383396 c 0,-0.02494 -1.02256,-1.0475 -2.27236,-2.272353 l -2.27235,-2.227004 2.22701,2.272353 c 2.0687,2.110826 2.3177,2.350083 2.3177,2.227004 z m -17.91079,-1.369512 0.5037,-0.55737 -0.55736,0.503706 c -0.51956,0.469525 -0.63621,0.611034 -0.50371,0.611034 0.0295,0 0.28033,-0.250817 0.55737,-0.55737 z m -41.7707,-0.300195 c 0.70743,-0.36796 1.20906,-0.669019 1.11474,-0.669019 -0.0943,0 -0.75031,0.301059 -1.45774,0.669019 -0.70743,0.36796 -1.20906,0.669018 -1.11474,0.669018 0.0943,0 0.75031,-0.301058 1.45774,-0.669018 z m 42.8746,-0.600245 c 0.22152,-0.23581 0.36419,-0.428745 0.31703,-0.428745 -0.0472,0 -0.26701,0.192935 -0.48853,0.428745 -0.22152,0.23581 -0.3642,0.428747 -0.31703,0.428747 0.0472,0 0.267,-0.192937 0.48853,-0.428747 z m -40.55937,-0.441082 c 0.37729,-0.181441 0.49305,-0.281861 0.25724,-0.223153 -0.48559,0.120894 -1.37706,0.567853 -1.11473,0.558901 0.0943,-0.0032 0.48019,-0.154306 0.85749,-0.335748 z m 41.67411,-0.502159 c 0.17073,-0.188647 0.27182,-0.342996 0.22466,-0.342996 -0.0472,0 -0.22543,0.154349 -0.39616,0.342996 -0.17073,0.188649 -0.27182,0.342997 -0.22466,0.342997 0.0472,0 0.22543,-0.154348 0.39616,-0.342997 z m 0.85749,-0.685992 c 0.17073,-0.188649 0.27183,-0.342998 0.22466,-0.342998 -0.0472,0 -0.22543,0.154349 -0.39616,0.342998 -0.17072,0.188648 -0.27182,0.342996 -0.22466,0.342996 0.0472,0 0.22543,-0.154348 0.39616,-0.342996 z m -39.06233,0.06788 c -0.057,-0.05699 -0.20491,-0.06308 -0.32871,-0.01353 -0.13681,0.05474 -0.0962,0.09538 0.10361,0.103613 0.18079,0.0074 0.28209,-0.03309 0.2251,-0.09007 z m 21.65524,-0.143512 c 0,-0.04159 -0.0772,-0.123324 -0.17149,-0.18162 -0.0943,-0.0583 -0.1715,-0.02426 -0.1715,0.07563 0,0.09989 0.0772,0.18162 0.1715,0.18162 0.0943,0 0.17149,-0.03403 0.17149,-0.07563 z m -20.23681,-0.374117 c 0,-0.227887 -0.0465,-0.239605 -0.25724,-0.06475 -0.1415,0.117423 -0.25726,0.242635 -0.25726,0.278246 0,0.03561 0.11576,0.06475 0.25726,0.06475 0.14148,0 0.25724,-0.125211 0.25724,-0.278246 z m 38.60902,-0.364873 c 0.21331,-0.272006 0.20726,-0.278073 -0.0648,-0.06475 -0.16507,0.129456 -0.30012,0.264511 -0.30012,0.300123 0,0.141149 0.14083,0.0503 0.36487,-0.235371 z m 9.23903,0.248015 c 0,-0.02866 -0.2894,-0.318062 -0.64312,-0.643118 l -0.64311,-0.591012 0.59101,0.643119 c 0.5501,0.598601 0.69522,0.721971 0.69522,0.591011 z m -8.38153,-0.934008 c 0.21331,-0.272007 0.20725,-0.278073 -0.0648,-0.06475 -0.16506,0.129456 -0.30012,0.264512 -0.30012,0.300123 0,0.14115 0.14084,0.0503 0.36488,-0.235371 z m 0.74985,-0.55737 c 0.17073,-0.188649 0.27183,-0.342997 0.22467,-0.342997 -0.0472,0 -0.22544,0.154348 -0.39616,0.342997 -0.17073,0.188648 -0.27182,0.342997 -0.22466,0.342997 0.0472,0 0.22543,-0.154349 0.39615,-0.342997 z m 6.2597,0.287141 c 0,-0.03072 -0.21224,-0.242948 -0.47163,-0.471621 l -0.47161,-0.415765 0.41576,0.471621 c 0.3886,0.440801 0.52748,0.550269 0.52748,0.415765 z m -5.29457,-1.101758 c 0.21331,-0.272007 0.20725,-0.278073 -0.0648,-0.06475 -0.16507,0.129455 -0.30012,0.264511 -0.30012,0.300122 0,0.141149 0.14083,0.05031 0.36488,-0.235371 z m 4.09408,0.06387 c 0,-0.03561 -0.13506,-0.170666 -0.30013,-0.300121 -0.27201,-0.213322 -0.27806,-0.207256 -0.0647,0.06475 0.22405,0.285674 0.36488,0.376522 0.36488,0.235372 z m -44.1253,-10.094528 c -0.041,-0.213328 -0.0761,-0.07917 -0.078,0.298122 -0.002,0.377298 0.0316,0.551839 0.0746,0.387871 0.0429,-0.163966 0.0445,-0.472663 0.003,-0.685993 z m 0.28714,-1.768765 c 0.0586,-0.152621 0.0298,-0.22146 -0.0674,-0.161377 -0.0933,0.05763 -0.16954,0.177397 -0.16954,0.266155 0,0.246688 0.12292,0.192328 0.23693,-0.104778 z"
       id="path6014"
       inkscape:connector-curvature="0" />
  </g>
</svg>
