<?xml version="1.0" encoding="UTF-8" standalone="no"?>
<!-- Created with Inkscape (http://www.inkscape.org/) -->

<svg
   xmlns:dc="http://purl.org/dc/elements/1.1/"
   xmlns:cc="http://creativecommons.org/ns#"
   xmlns:rdf="http://www.w3.org/1999/02/22-rdf-syntax-ns#"
   xmlns:svg="http://www.w3.org/2000/svg"
   xmlns="http://www.w3.org/2000/svg"
   xmlns:sodipodi="http://sodipodi.sourceforge.net/DTD/sodipodi-0.dtd"
   xmlns:inkscape="http://www.inkscape.org/namespaces/inkscape"
   version="1.1"
   id="svg10"
   width="192"
   height="101.76"
   viewBox="0 0 192 101.76"
   sodipodi:docname="maryland03_states.svg"
   inkscape:version="0.92.2 (5c3e80d, 2017-08-06)">
  <metadata
     id="metadata16">
    <rdf:RDF>
      <cc:Work
         rdf:about="">
        <dc:format>image/svg+xml</dc:format>
        <dc:type
           rdf:resource="http://purl.org/dc/dcmitype/StillImage" />
        <dc:title></dc:title>
      </cc:Work>
    </rdf:RDF>
  </metadata>
  <defs
     id="defs14" />
  <sodipodi:namedview
     pagecolor="#ffffff"
     bordercolor="#666666"
     borderopacity="1"
     objecttolerance="10"
     gridtolerance="10"
     guidetolerance="10"
     inkscape:pageopacity="0"
     inkscape:pageshadow="2"
     inkscape:window-width="2736"
     inkscape:window-height="1699"
     id="namedview12"
     showgrid="false"
     inkscape:zoom="7.2407734"
     inkscape:cx="121.93692"
     inkscape:cy="7.7560867"
     inkscape:window-x="-13"
     inkscape:window-y="-13"
     inkscape:window-maximized="1"
     inkscape:current-layer="svg10" />
  <path
     style="fill:#d42f29;stroke-width:0.31328142;fill-opacity:1"
     d="m 152.10637,100.36065 c -0.62678,-0.963642 -0.60397,-4.236236 0.0363,-5.220085 0.31887,-0.489909 0.48515,-1.415938 0.46823,-2.607546 -0.0144,-1.016313 0.11672,-2.223846 0.29146,-2.683403 l 0.31775,-0.835569 -0.90096,0.860776 c -1.07069,1.022945 -2.03929,1.1029 -2.63133,0.217219 -0.39192,-0.586335 -0.43118,-0.495846 -0.44144,1.017282 -0.007,1.032824 0.14788,1.782492 0.40962,1.982554 0.62133,0.474934 1.08997,2.861779 0.70344,3.582748 -0.17485,0.326166 -0.31792,0.898074 -0.31792,1.270917 0,0.84318 -1.91818,2.806367 -2.74202,2.806367 -1.38159,0 -2.00029,-1.497145 -2.01355,-4.872427 -0.007,-1.781328 0.1202,-2.508948 0.51471,-2.94412 0.44521,-0.491092 0.45672,-0.617587 0.0765,-0.841125 -0.83542,-0.49122 -1.10702,-1.448335 -0.69084,-2.434511 0.36866,-0.873571 0.33915,-0.943734 -0.59236,-1.408544 -0.92538,-0.461748 -0.98001,-0.587988 -0.97422,-2.251478 0.005,-1.335065 -0.0945,-1.723764 -0.4088,-1.603353 -0.88268,0.338129 -2.9197,-0.943105 -3.57452,-2.24828 -0.35108,-0.699752 -0.98308,-1.639958 -1.40444,-2.089352 -0.42136,-0.449391 -0.80426,-1.174243 -0.85088,-1.610779 -0.0466,-0.436539 -0.45044,-1.22753 -0.89737,-1.757756 -0.44693,-0.530229 -0.91081,-1.410359 -1.03082,-1.955847 -0.12002,-0.545489 -0.60949,-1.654253 -1.08773,-2.463928 -0.47822,-0.809672 -0.95884,-1.753149 -1.06805,-2.096617 -0.24767,-0.778969 0.87222,-2.287897 1.69801,-2.287897 0.9307,0 1.06464,-0.612106 0.34623,-1.582133 -0.77909,-1.05195 -0.8497,-1.943517 -0.19673,-2.484483 0.27699,-0.229486 0.39745,-0.664951 0.29579,-1.0693 -0.3081,-1.225433 0.81389,-1.866843 2.91646,-1.667261 1.26632,0.120198 1.61916,0.08242 1.17824,-0.126163 -0.34616,-0.16376 -0.84874,-0.678824 -1.11685,-1.144588 -0.59411,-1.032197 -2.17314,-1.2952 -2.17314,-0.36197 0,0.640183 -1.11656,1.549685 -1.90249,1.549685 -0.27981,0 -0.75609,-0.272845 -1.05841,-0.606325 -0.47969,-0.529136 -0.5211,-0.986678 -0.32528,-3.594165 0.16876,-2.246852 0.37078,-3.156323 0.81464,-3.667199 0.66717,-0.767929 0.86054,-1.917654 0.21396,-1.272193 -0.51971,0.518803 -1.66278,0.470694 -2.12858,-0.08959 -0.23557,-0.283339 -0.31926,-0.925757 -0.21408,-1.6433 0.0949,-0.647952 0.23846,-2.071426 0.31886,-3.163276 0.0955,-1.297118 0.42808,-2.527625 0.95956,-3.550243 0.44736,-0.860789 0.81339,-1.770346 0.81339,-2.021241 0,-1.568648 2.03812,-3.210851 2.90765,-2.342825 0.55351,0.552547 0.855,0.417452 0.855,-0.383124 0,-1.136875 -0.67244,-2.819477 -1.30794,-3.272803 -0.84481,-0.602635 -0.70534,-1.724678 0.52405,-4.215847 0.60359,-1.223081 1.09744,-2.380941 1.09744,-2.573021 0,-0.192081 0.35275,-0.82653 0.78388,-1.409889 0.43114,-0.583359 0.78389,-1.407253 0.78389,-1.830876 0,-0.7504 -0.0162,-0.755643 -0.62711,-0.203687 -0.34491,0.311598 -0.62711,0.734161 -0.62711,0.939029 0,0.204869 -0.28926,0.633819 -0.64281,0.953221 -0.53905,0.486982 -0.79161,0.524669 -1.56446,0.233456 -0.5069,-0.191002 -1.17009,-0.282414 -1.47377,-0.203139 -0.6655,0.173733 -1.33581,1.492314 -1.33581,2.627721 0,0.563331 -0.44432,1.262973 -1.3977,2.200868 l -1.3977,1.375001 0.65541,0.696434 c 0.64873,0.689348 0.80441,1.257429 1.01596,3.707396 0.0599,0.693899 0.40634,1.749834 0.76984,2.346524 0.39391,0.646609 0.58472,1.33821 0.47232,1.711953 -0.22852,0.759881 -1.67357,2.348537 -2.1365,2.348841 -0.18831,1.22e-4 -0.34341,0.688959 -0.35658,1.583647 -0.0193,1.313426 -0.17213,1.7212 -0.89614,2.391372 -0.71788,0.664501 -0.84286,0.992385 -0.70398,1.846794 0.18697,1.15013 -0.23032,3.008931 -0.81844,3.64569 -1.60809,1.741097 -1.61463,1.756632 -1.01838,2.414347 0.43935,0.484636 0.51224,0.9076 0.3465,2.010883 -0.1413,0.94061 -0.0378,1.987941 0.31661,3.205091 0.37635,1.292361 0.47796,2.448578 0.35629,4.054456 -0.17091,2.255848 0.18382,3.400164 1.44479,4.660748 0.20291,0.202859 0.79224,0.913318 1.3096,1.578802 0.51736,0.665483 1.33707,1.635604 1.82157,2.155823 0.74828,0.803436 0.855,1.130813 0.70881,2.174202 -0.0947,0.675591 -0.3409,1.431372 -0.5472,1.679513 -0.29497,0.3548 -0.27893,0.511909 0.0751,0.735529 0.24759,0.156398 0.5409,0.286519 0.65178,0.289156 0.53994,0.01283 0.52883,1.139045 -0.0204,2.068314 -0.77915,1.318268 -0.53606,2.276961 1.2336,4.865009 0.71148,1.040513 1.28186,2.125717 1.26749,2.411564 -0.0144,0.285836 -0.10877,1.187823 -0.20979,2.004406 -0.10101,0.816584 -0.0276,1.931641 0.16317,2.477912 0.27799,0.796071 0.25167,1.138191 -0.1326,1.723646 -0.53048,0.808211 -1.64411,0.976952 -1.9085,0.289182 -0.0933,-0.2427 -0.52146,-0.529426 -0.95147,-0.63716 -0.50325,-0.126094 -0.94526,-0.586277 -1.24039,-1.2914 -0.49734,-1.188224 -1.86165,-1.971188 -2.4359,-1.397931 -0.55913,0.558165 -1.41851,0.356694 -1.95316,-0.457874 -0.28249,-0.430388 -0.75773,-0.782524 -1.05607,-0.782524 -0.69497,0 -1.43924,-0.856757 -1.70155,-1.958727 -0.35793,-1.503689 -1.76466,-2.756637 -3.49147,-3.10979 -1.86723,-0.381872 -3.25989,-0.350483 -3.78594,0.0853 -0.46067,0.381666 -2.24829,-0.27719 -2.90861,-1.072029 -0.23668,-0.284898 -0.70874,-0.517999 -1.04903,-0.517999 -0.34029,0 -1.04756,-0.304846 -1.57172,-0.677437 -0.52417,-0.372592 -1.4631,-0.851528 -2.08651,-1.064303 -0.92742,-0.316534 -1.15109,-0.559958 -1.23038,-1.339071 -0.0721,-0.708813 -0.33514,-1.056833 -1.02892,-1.361522 -0.69176,-0.303799 -1.01671,-0.732083 -1.26053,-1.661356 -0.70093,-2.671506 -1.0142,-3.599611 -1.21504,-3.599611 -0.11479,0 -0.54009,0.352136 -0.94513,0.782524 -0.40503,0.430388 -1.0427,0.782524 -1.41705,0.782524 -0.37434,0 -0.94013,0.286257 -1.25731,0.636127 -0.87053,0.960257 -2.60893,1.946203 -3.43151,1.946203 -1.028504,0 -2.869692,-1.492327 -3.305729,-2.679376 -0.411909,-1.121354 -0.693304,-3.193478 -0.68819,-5.067613 0.0038,-1.412895 1.062149,-3.99889 1.884976,-4.606041 0.299726,-0.221163 0.995206,-0.978772 1.545511,-1.683579 0.599542,-0.767859 1.413942,-1.399732 2.032002,-1.576551 0.90359,-0.258512 1.0354,-0.430962 1.06335,-1.39126 0.0465,-1.599513 0.6307,-2.454687 2.10309,-3.078922 1.26522,-0.536415 1.30621,-0.599708 1.35354,-2.090154 0.0853,-2.687162 0.37751,-3.328698 2.48601,-5.458444 l 2.02301,-2.043399 -1.82709,-1.804892 -1.82709,-1.804889 -1.42494,1.422463 c -0.78372,0.782359 -1.66171,1.422466 -1.95111,1.422466 -0.28939,0 -0.76653,-0.421671 -1.0603,-0.937051 -0.38785,-0.680423 -0.76855,-0.937592 -1.39007,-0.939029 -2.150345,-0.005 -4.317701,-1.690111 -4.317701,-3.357056 0,-0.797289 -2.220591,-1.966086 -3.735362,-1.966086 -2.09961,0 -4.411699,-0.878155 -4.991729,-1.89591 -0.287504,-0.50447 -0.677241,-0.91811 -0.866079,-0.919199 -0.625523,-0.0036 -1.309944,-1.079342 -1.526597,-2.399416 -0.245403,-1.495273 0.390434,-3.073497 1.362317,-3.381425 0.328181,-0.10398 0.66721,-0.458253 0.753403,-0.787274 0.121336,-0.463194 -0.05355,-0.644321 -0.774819,-0.802463 -0.512336,-0.112333 -1.449491,-0.753791 -2.082562,-1.425462 -0.684693,-0.726441 -1.44095,-1.221427 -1.866605,-1.221733 -0.39356,-2.83e-4 -1.222112,-0.211796 -1.841223,-0.470029 -0.619114,-0.258233 -1.566999,-0.470041 -2.106414,-0.470685 -1.048924,-0.0013 -2.936591,-0.985661 -3.198981,-1.668255 -0.08748,-0.227591 -0.03455,-1.206474 0.117641,-2.175295 l 0.276711,-1.761491 -0.901623,-0.197687 c -1.251492,-0.274357 -1.932329,-1.375313 -1.520009,-2.457912 0.276335,-0.725551 0.226404,-0.869317 -0.383611,-1.104573 -0.385712,-0.148752 -1.001866,-0.602324 -1.369235,-1.007939 -0.862212,-0.951979 -1.934326,-3.418708 -1.749012,-4.024145 0.115967,-0.378879 0.06353,-0.393965 -0.271767,-0.07819 -0.560633,0.527984 -1.382582,0.493362 -1.857804,-0.07825 -0.214687,-0.258233 -0.77167,-0.469514 -1.237746,-0.469514 -0.935122,0 -1.38837,-0.38733 -3.009902,-2.5721554 C 61.185503,7.4602819 60.670658,7.0899797 59.339667,6.69149 l -1.639576,-0.4908784 -1.94083,2.045751 c -1.067455,1.1251632 -2.002133,2.0457514 -2.077062,2.0457514 -0.07493,0 -0.718624,-0.205122 -1.430431,-0.4558276 -1.225765,-0.4317264 -1.327321,-0.4203299 -1.920741,0.2155266 -0.344601,0.369244 -0.626548,0.848088 -0.626548,1.064097 0,0.216009 -0.246923,0.5768 -0.548719,0.801756 -0.301795,0.224956 -0.5974,0.69072 -0.6569,1.03503 -0.136076,0.787422 -0.63694,1.408544 -1.135828,1.408544 -0.210837,0 -0.633608,0.276062 -0.939488,0.613469 -0.471262,0.519836 -0.955263,0.610164 -3.171069,0.591808 -1.688742,-0.01399 -2.813901,-0.172318 -3.176704,-0.44701 -0.308978,-0.233942 -1.204374,-0.429828 -1.989768,-0.435303 -1.380643,-0.0096 -2.242353,-0.428007 -4.936535,-2.396815 -0.686277,-0.501504 -0.743079,-0.494478 -1.193607,0.147626 -0.260171,0.370803 -0.673433,0.674186 -0.918361,0.674186 -0.244927,0 -0.692967,0.38735 -0.995645,0.860777 -0.302677,0.473427 -0.940876,1.234211 -1.418218,1.690631 -0.477343,0.456419 -0.867896,0.984623 -0.867896,1.173786 0,0.189162 -0.218849,0.343932 -0.48633,0.343932 -0.267481,0 -0.690546,0.48791 -0.940143,1.084245 -0.73189,1.748621 -1.401292,1.903105 -3.47038,0.800892 -2.158713,-1.149957 -2.428265,-1.164115 -2.890301,-0.151818 -0.199392,0.43686 -0.502112,0.965064 -0.672709,1.173787 -0.170599,0.208722 -0.668867,0.826916 -1.107265,1.373765 -0.438398,0.546848 -1.226103,1.088334 -1.750458,1.203302 -0.524353,0.114967 -1.029482,0.407032 -1.122507,0.649031 -0.09303,0.242 -0.384784,0.439999 -0.648353,0.439999 -0.551283,0 -1.663737,1.120721 -2.477482,2.495893 -0.486212,0.821663 -1.038417,1.1421 -1.497472,0.868961 -0.07233,-0.04304 -0.460356,0.212666 -0.862272,0.568232 -0.401915,0.355566 -1.129664,0.894138 -1.61722,1.196826 C 7.7252942,29.18413 7.0571358,29.887336 6.728053,30.444123 5.7048684,32.175284 2.6451327,33.146071 1.7198545,32.033111 1.3956524,31.643148 1.3843791,28.77879 1.661172,17.122804 1.8496077,9.187614 2.124727,2.5744513 2.2725486,2.4268858 2.5471125,2.1527999 157.72128,2.0187447 158.16453,2.2922125 c 0.13422,0.082801 0.33695,2.3040074 0.45052,4.936005 0.11358,2.6319985 0.41685,7.8138205 0.67396,11.5151595 0.25709,3.70134 0.8243,12.363882 1.26047,19.250095 1.43842,22.709496 2.05115,31.578701 2.1913,31.718606 0.29157,0.291068 17.44516,0.705043 21.37558,0.515863 4.98828,-0.240094 5.43294,-0.09033 5.43294,1.829879 0,1.529503 -1.42089,6.709181 -2.03255,7.409434 -0.4788,0.548132 -2.17117,5.200947 -2.96394,8.148676 -0.81786,3.041016 -3.10377,7.246311 -4.2287,7.779367 -1.12915,0.535041 -1.92904,0.12803 -1.85373,-0.943245 0.1584,-2.252995 0.39231,-3.23651 0.84903,-3.569885 0.28035,-0.20465 0.50973,-0.510793 0.50973,-0.680327 0,-0.169534 0.27092,-0.553 0.60206,-0.852149 0.8487,-0.766727 1.51203,-3.598193 0.92745,-3.958868 -0.31876,-0.196658 -0.53582,0.03521 -0.83174,0.888478 -0.22022,0.635018 -0.53787,1.291791 -0.70587,1.459495 -0.16799,0.167705 -0.30545,0.7384 -0.30545,1.268208 0,1.276903 -0.75114,2.290615 -1.78752,2.412405 -0.70602,0.08295 -0.85774,0.273463 -0.9512,1.194249 -0.0611,0.602544 -0.49954,1.658951 -0.97417,2.347572 -0.81821,1.187099 -0.95166,1.254533 -2.57285,1.300155 -0.94043,0.02641 -3.09683,0.204405 -4.792,0.395419 -2.92097,0.329139 -3.13605,0.404369 -4.11322,1.43868 -1.06837,1.130836 -1.68521,1.334801 -2.27032,0.750705 -0.1877,-0.187375 -1.16338,-0.373254 -2.16818,-0.413075 -1.51101,-0.05986 -1.93725,0.04255 -2.46504,0.592381 -2.00331,2.086965 -4.4293,2.696415 -5.31472,1.335155 z m 2.98408,-0.960649 c 0.59436,-0.404956 1.02746,-0.946424 0.97957,-1.22468 -0.0621,-0.361213 0.0892,-0.453101 0.54872,-0.33314 0.34901,0.09107 0.63456,0.02348 0.63456,-0.150372 0,-0.510235 0.88352,-0.702207 1.73846,-0.377724 0.60268,0.228742 0.83321,0.194418 0.96307,-0.143407 0.14318,-0.372492 0.38889,-0.350777 1.52326,0.134623 l 1.35253,0.578765 0.85371,-1.022114 c 0.84164,-1.007666 0.90969,-1.027376 4.81501,-1.394741 5.19705,-0.488863 5.9994,-0.644918 5.9994,-1.166832 0,-0.239071 0.19635,-0.434682 0.43634,-0.434682 0.49717,0 0.90765,-1.280288 0.63657,-1.985489 -0.25217,-0.65599 1.00723,-1.824856 1.84159,-1.709199 0.58875,0.08158 0.711,-0.0896 0.86289,-1.20813 0.0973,-0.716753 0.33168,-1.491452 0.52079,-1.721553 0.18909,-0.230081 0.49917,-0.998589 0.68908,-1.707771 0.34826,-1.300604 1.41381,-2.936205 1.91284,-2.936205 0.14849,0 0.31462,0.376488 0.36919,0.836638 0.10561,0.890606 0.8831,1.426782 0.8831,0.609005 0,-0.266527 0.26735,-0.627426 0.59412,-0.802004 0.32677,-0.174578 0.75071,-0.765791 0.94208,-1.313808 0.19137,-0.548017 0.43552,-0.908967 0.54256,-0.802116 0.20904,0.208675 -0.72989,2.775 -1.11091,3.036422 -0.1262,0.08657 -0.47389,1.072968 -0.77266,2.191977 -0.70556,2.642702 -1.14649,3.756117 -1.48745,3.756117 -0.15153,0 -0.27551,0.335712 -0.27551,0.746019 0,0.466316 -0.22053,0.803584 -0.58819,0.89956 -0.68169,0.177966 -1.12759,2.423546 -0.48122,2.423546 0.54026,0 2.86367,-4.61833 3.42626,-6.810552 0.62776,-2.446122 2.85759,-8.569683 3.20793,-8.809577 0.31979,-0.218985 1.52022,-4.355592 1.75736,-6.055789 0.15452,-1.107879 0.1164,-1.173079 -0.67885,-1.161209 -0.4634,0.0069 -6.46218,-0.03764 -13.33059,-0.09902 -9.03931,-0.08078 -12.55021,-0.212015 -12.71315,-0.475203 -0.12382,-0.199982 -0.5443,-5.402246 -0.9344,-11.56059 -0.39012,-6.158343 -1.0539,-16.549453 -1.47508,-23.091355 -0.70117,-10.890788 -1.40397,-21.891238 -1.89419,-29.6485261 l -0.19228,-3.0427034 -9.06006,-0.087388 c -8.33371,-0.080385 -9.06005,-0.044956 -9.05988,0.4419002 9e-5,0.2911117 0.14128,0.6163474 0.31374,0.7227452 0.17245,0.1063979 0.30886,0.3612054 0.30311,0.5662394 -0.0131,0.4693502 -1.24377,-0.9769149 -1.24376,-1.4616926 0,-0.2659193 -17.20994,-0.3363298 -67.685657,-0.2769186 L 3.0688043,3.4087404 2.8366666,17.355013 c -0.1276757,7.67045 -0.1473701,14.030892 -0.043765,14.134318 0.3200582,0.319503 2.4106938,-0.960205 3.0733628,-1.881249 0.7786886,-1.0823 3.8153916,-3.352465 4.4844486,-3.352465 0.271862,0 0.78567,-0.49299 1.141797,-1.095534 0.356127,-0.602543 0.758209,-1.095534 0.893515,-1.095534 0.135307,0 0.319809,-0.281708 0.410005,-0.626019 0.09628,-0.367548 0.427691,-0.626019 0.802673,-0.626019 0.351276,0 0.835713,-0.280813 1.076528,-0.624028 0.240814,-0.343216 0.518929,-0.543086 0.618031,-0.444155 0.0991,0.09893 0.461743,0.02945 0.805867,-0.154399 0.422141,-0.225532 0.582748,-0.56471 0.493708,-1.042642 -0.07259,-0.389602 -0.0481,-0.5323 0.05441,-0.317106 0.315527,0.662364 1.052211,0.433529 1.25958,-0.391262 0.108208,-0.430388 0.2942,-0.782524 0.413314,-0.782524 0.119115,0 0.384249,-0.462896 0.589185,-1.028656 0.503401,-1.389716 1.653772,-1.457905 4.009725,-0.237682 1.898475,0.983282 2.328263,0.982511 2.328263,-0.0042 0,-0.334151 0.141099,-0.607547 0.313553,-0.607547 0.172454,0 0.313553,-0.211281 0.313553,-0.469514 0,-0.258233 0.208025,-0.469515 0.462278,-0.469515 0.254254,0 0.681174,-0.422563 0.948713,-0.939029 0.267538,-0.516466 0.694459,-0.939029 0.948712,-0.939029 0.254253,0 0.467353,-0.176068 0.473554,-0.391262 0.01905,-0.661035 1.462589,-2.207696 1.842015,-1.973604 0.239196,0.147575 0.331511,-0.08866 0.282999,-0.724207 -0.04113,-0.538839 0.157639,-1.19653 0.463624,-1.5340536 0.294591,-0.3249226 0.53562,-0.896626 0.53562,-1.2704202 0,-0.3737932 0.125421,-0.6796242 0.278714,-0.6796242 0.153293,0 0.259117,0.2464951 0.235165,0.5477669 -0.03276,0.4119853 0.170193,0.5331592 0.818723,0.488838 1.017073,-0.069508 1.196821,0.6932695 0.235165,0.997958 -0.876572,0.2777301 -0.797111,1.0955341 0.106445,1.0955341 0.478181,0 0.857894,0.272423 1.090718,0.782524 0.196438,0.430389 0.571833,0.782525 0.834211,0.782525 0.262379,0 0.477053,0.129931 0.477053,0.288734 0,0.398707 2.114783,1.060962 2.687451,0.841589 0.256693,-0.09833 0.991644,0.02084 1.633224,0.26485 0.64158,0.243999 2.048488,0.513426 3.126463,0.598728 1.704642,0.134891 2.001948,0.07676 2.282315,-0.446193 0.177295,-0.330708 0.671032,-0.688647 1.097189,-0.795421 0.989662,-0.247958 0.975628,-0.541088 -0.07233,-1.511134 -1.030365,-0.953747 -0.770972,-1.345643 0.533614,-0.806202 1.336063,0.552455 1.530046,0.165158 0.47033,-0.9390293 -1.074924,-1.1200337 -0.883895,-1.4816068 0.42562,-0.8056047 1.246879,0.6436692 1.382621,0.6229264 1.129683,-0.1726229 -0.138199,-0.4346726 -0.0956,-0.5937177 0.122894,-0.4589103 0.183915,0.1134679 0.610696,0.03405 0.948398,-0.1764827 0.502038,-0.3129842 0.850054,-0.2765333 1.90839,0.1998821 l 1.29438,0.5826724 1.004735,-1.2169924 c 0.552604,-0.6693447 0.963273,-1.397909 0.9126,-1.6190298 -0.05068,-0.2211208 0.149866,-0.4020374 0.445641,-0.4020374 0.295779,0 0.780817,-0.2195675 1.077865,-0.4879273 0.489576,-0.4422925 0.711832,-0.4382038 2.37634,0.043714 1.823984,0.5280933 2.529182,1.0878084 4.889417,3.8807301 0.546144,0.6462623 1.030798,0.9459862 1.332601,0.8241222 0.260871,-0.105335 0.685958,-0.2770145 0.94464,-0.3815108 0.329476,-0.1330937 0.47033,0.00753 0.47033,0.4695138 0,0.829917 0.520567,0.861682 0.779409,0.04756 0.162025,-0.5096065 0.32629,-0.5619545 0.982203,-0.3130091 1.025464,0.3892051 1.060369,0.3833931 1.060369,-0.1765374 0,-0.3592138 0.210843,-0.4258693 0.862271,-0.2725972 1.161716,0.2733357 1.404673,0.5419907 1.280759,1.4162447 -0.07373,0.520263 -0.337979,0.768202 -0.888817,0.833975 -1.524841,0.182076 -1.704376,0.332436 -1.140117,0.954854 0.282157,0.311238 0.51301,0.871718 0.51301,1.245512 0,0.693378 0.74173,0.941165 1.097437,0.366616 0.106583,-0.172156 0.348427,-0.31301 0.537431,-0.31301 0.189007,0 0.09631,0.272833 -0.205995,0.606296 -0.821733,0.906427 -0.320778,1.369619 1.285769,1.188852 1.072525,-0.12068 1.272995,-0.07656 0.902693,0.198646 -0.261809,0.194578 -0.524904,0.812111 -0.584662,1.372293 -0.05975,0.560185 -0.198319,1.108035 -0.307922,1.217446 -0.372846,0.372201 0.131655,0.737631 1.018356,0.737631 0.698089,0 0.971128,0.209706 1.297662,0.996666 0.315639,0.760696 0.324773,1.026206 0.03858,1.121439 -0.228913,0.07617 -0.300475,0.421069 -0.183717,0.885457 0.105188,0.418376 0.03192,0.952323 -0.1628,1.186548 -0.488902,0.588072 0.852477,1.444065 2.262915,1.444065 0.583163,0 1.540544,0.239473 2.127516,0.532164 0.586972,0.29269 1.598677,0.545723 2.248228,0.562294 1.006892,0.02569 1.264815,0.186128 1.749471,1.088253 0.390146,0.726206 0.953845,1.191314 1.797028,1.482725 1.739886,0.60132 2.264144,1.183827 1.772599,1.969551 -0.212194,0.339191 -0.385809,0.829905 -0.385809,1.090473 0,0.260569 -0.20157,0.473762 -0.447932,0.473762 -0.770831,0 -1.433388,0.940441 -1.433388,2.034563 0,0.994169 0.648692,2.034563 1.268559,2.034563 0.155707,0 0.492723,0.404659 0.748928,0.899245 0.520571,1.004924 0.844305,1.132369 4.410358,1.736243 3.261814,0.552353 5.223,1.734988 4.97014,2.997095 -0.242247,1.209141 1.070014,2.192659 2.925569,2.192659 1.20836,0 1.45084,0.118502 1.91742,0.937051 0.29378,0.515376 0.63157,0.937939 0.75064,0.939029 0.11908,9.39e-4 0.81428,-0.705719 1.5449,-1.570683 0.73061,-0.864962 1.43529,-1.53402 1.56595,-1.486796 0.13067,0.04723 1.38386,1.201269 2.78487,2.564541 l 2.54729,2.47868 -2.39454,2.404493 c -1.317,1.322473 -2.36127,2.60159 -2.32059,2.842488 0.0407,0.240895 -0.0297,0.673481 -0.15643,0.9613 -0.1267,0.287819 -0.0735,0.816023 0.11836,1.173786 0.25833,0.48185 0.25604,0.650478 -0.009,0.650478 -0.22673,0 -0.31468,0.448412 -0.24043,1.225709 0.0644,0.674141 0.0116,1.160608 -0.11739,1.081041 -0.46459,-0.286632 -2.80006,0.634013 -3.1194,1.229675 -0.17962,0.335048 -0.24271,1.027864 -0.14019,1.539587 0.14485,0.722996 0.0296,1.061044 -0.51717,1.516397 -0.38698,0.322291 -1.01147,0.590672 -1.38774,0.5964 -0.7202,0.01096 -1.981068,1.47882 -1.981068,2.306283 0,0.262722 -0.317475,0.522754 -0.705498,0.577851 -0.446723,0.06343 -0.689523,0.301037 -0.661946,0.647789 0.02396,0.30119 -0.08907,0.547616 -0.251165,0.547616 -0.568919,0 -1.240556,2.204311 -1.033225,3.391047 0.11027,0.631178 0.236812,1.640584 0.281201,2.243127 0.126415,1.715922 0.42094,2.335888 1.481577,3.118694 0.967364,0.713956 1.005434,0.717218 2.018204,0.17275 1.52655,-0.82067 2.22617,-1.716244 2.57129,-3.291444 l 0.3086,-1.408543 0.0336,1.155313 c 0.0437,1.502994 0.37774,1.66446 1.48207,0.716372 0.49674,-0.426463 0.99948,-0.775559 1.11719,-0.77577 0.11773,-2.09e-4 0.31126,-0.306145 0.43008,-0.67986 0.20002,-0.629136 0.27044,-0.589481 0.95045,0.535294 0.62515,1.034056 0.91796,1.906855 1.48881,4.437889 0.0472,0.209597 0.56939,0.706312 1.16026,1.103809 0.6566,0.441716 1.07674,0.98328 1.08055,1.392837 0.005,0.495873 0.48329,0.920997 1.84101,1.635025 1.00912,0.530702 1.89099,0.964915 1.95971,0.964915 0.33045,0 0.0617,-1.660357 -0.46868,-2.895559 -0.33235,-0.77401 -0.52327,-1.749627 -0.43381,-2.216803 0.13649,-0.712779 0.006,-0.901067 -0.89578,-1.291869 -0.81826,-0.354634 -0.90477,-0.460234 -0.3848,-0.46973 1.03921,-0.01897 2.07283,0.992434 2.07283,2.028302 0,0.498953 0.26456,1.523312 0.58791,2.276353 0.32336,0.753042 0.58792,1.700135 0.58792,2.104649 0,0.460578 0.2344,0.809747 0.6271,0.934171 0.34491,0.109282 0.62711,0.385412 0.62711,0.613625 0,0.940623 1.07236,0.824878 2.02527,-0.218591 0.52442,-0.57425 0.84766,-0.905098 0.71832,-0.735212 -0.39166,0.514434 -0.26425,1.122703 0.23517,1.122703 0.25868,0 0.47248,-0.176068 0.47513,-0.391262 0.003,-0.272022 0.075,-0.285872 0.23516,-0.04545 0.1267,0.190201 0.98643,0.524836 1.91052,0.743631 2.06995,0.490115 3.5895,1.764103 4.29088,3.597489 0.32111,0.839355 0.6774,1.312606 0.91861,1.2202 0.21672,-0.08305 0.75677,0.27938 1.20009,0.805325 0.44333,0.525954 0.88571,0.956273 0.98307,0.956273 0.36566,0 0.15726,-0.755351 -0.37169,-1.347242 -0.53107,-0.594259 -0.52449,-0.606476 0.20421,-0.379788 0.60971,0.189674 0.71668,0.139964 0.5624,-0.261383 -0.10477,-0.272592 -0.0555,-0.578863 0.10935,-0.68061 0.16491,-0.101758 0.29985,-0.450089 0.29985,-0.774083 0,-0.323984 0.11557,-0.660372 0.25682,-0.747516 0.14125,-0.08715 0.19734,0.246055 0.12466,0.740454 -0.18883,1.284327 0.44073,2.936275 1.25672,3.297586 0.38393,0.169994 1.02109,0.790799 1.4159,1.379561 0.39482,0.588761 1.13457,1.323444 1.64389,1.632639 l 0.92602,0.562185 -0.18235,-1.00663 c -0.1003,-0.553645 -0.29076,-1.527291 -0.42326,-2.16365 -0.17302,-0.83105 -0.11121,-1.341843 0.21942,-1.813059 0.42049,-0.599287 0.38337,-0.756418 -0.42905,-1.816102 -2.21152,-2.884658 -2.79,-4.975642 -1.79566,-6.490577 0.48224,-0.734703 0.47177,-0.781347 -0.23516,-1.048466 -0.52715,-0.199181 -0.98992,-0.134257 -1.60964,0.225823 -0.95095,0.552538 -1.86685,0.257263 -2.04796,-0.660241 -0.079,-0.400123 0.0966,-0.44185 1.0018,-0.238052 1.03347,0.232681 1.14438,0.176524 1.8987,-0.961366 0.79685,-1.202029 1.07871,-2.786954 0.49563,-2.786954 -0.16802,0 -0.51169,-0.398035 -0.7637,-0.884524 -0.25201,-0.486489 -1.06695,-1.559121 -1.81098,-2.383628 -2.15662,-2.389889 -2.4222,-3.080388 -2.43709,-6.336518 -0.007,-1.581231 -0.16682,-3.271483 -0.35465,-3.756116 -0.18782,-0.484636 -0.33083,-1.745564 -0.3178,-2.802069 0.0203,-1.647176 -0.0627,-1.943481 -0.58295,-2.07928 -0.93287,-0.243527 -0.64046,-1.455047 0.69655,-2.886017 0.6434,-0.688622 1.19401,-1.498534 1.22358,-1.799806 0.13216,-1.34668 0.0813,-1.645764 -0.28592,-1.682427 -0.21557,-0.0215 -0.63887,-0.05911 -0.94067,-0.08352 -0.3997,-0.03234 -0.27197,-0.221319 0.47033,-0.695883 1.25772,-0.804062 1.30799,-1.663233 0.1669,-2.852207 l -0.85215,-0.887908 1.0027,0.499341 c 0.55148,0.274638 1.08056,0.625125 1.17574,0.778859 0.26385,0.426181 1.07629,-5.7e-5 0.89568,-0.469908 -0.0871,-0.226573 -0.005,-0.506469 0.1821,-0.621992 0.22537,-0.139051 0.12661,-0.481409 -0.29219,-1.012902 -0.7599,-0.964393 -0.81642,-1.481841 -0.13328,-1.220146 0.33312,0.127604 0.55406,-0.01756 0.66368,-0.436025 0.17879,-0.682515 0.7183,-0.865153 0.7183,-0.243166 0,0.211282 0.37946,0.0054 0.84324,-0.457629 0.7684,-0.767068 0.80596,-0.911303 0.42326,-1.625153 -0.23796,-0.443851 -1.24894,-1.190071 -2.33262,-1.721734 -1.24735,-0.611968 -1.67368,-0.942432 -1.22565,-0.950063 0.37785,-0.0065 0.78665,-0.172668 0.90844,-0.369401 0.14136,-0.228306 0.38027,-0.05511 0.66051,0.478801 0.69448,1.323183 1.1284,0.669585 0.88478,-1.332729 -0.16701,-1.372651 -0.42852,-1.985192 -1.18354,-2.772246 -0.66725,-0.69555 -1.08275,-0.916169 -1.3338,-0.70818 -0.46927,0.388779 -1.56127,-0.772568 -1.84241,-1.959404 -0.15788,-0.666481 -0.38816,-0.860776 -1.02021,-0.860776 -0.69005,0 -0.75593,-0.07262 -0.42596,-0.469515 0.5516,-0.66349 -0.18621,-1.505823 -1.15676,-1.320614 -0.83877,0.160063 -0.99523,-0.257937 -0.17584,-0.469814 0.30179,-0.07804 0.97201,0.115319 1.48938,0.429683 0.51736,0.314365 1.25813,0.736531 1.64615,0.938149 0.43949,0.228354 0.7055,0.655487 0.7055,1.132791 0,0.678891 0.0979,0.741682 0.85912,0.55096 0.47253,-0.11839 0.96422,-0.380155 1.09264,-0.5817 0.14227,-0.223266 0.23539,-0.09127 0.23831,0.337827 0.003,0.387349 0.13128,0.704271 0.28587,0.704271 0.26298,0 2.22736,-2.06297 2.22736,-2.33914 0,-0.06946 -0.36717,-0.09977 -0.81594,-0.06736 -0.63139,0.0456 -0.94463,-0.176782 -1.38492,-0.983211 -0.31295,-0.573176 -0.82765,-1.334467 -1.14378,-1.691755 l -0.57478,-0.649617 0.86227,0.553969 c 0.47425,0.304682 0.86227,0.814521 0.86227,1.132974 0,0.482936 0.82438,1.227053 1.3594,1.227053 0.0805,0 0.44519,-0.505491 0.81035,-1.123312 0.6621,-1.120237 0.66219,-1.123765 0.031,-1.288546 -0.34813,-0.09088 -0.63296,-0.299151 -0.63296,-0.462829 0,-0.163677 0.28897,-0.206039 0.64216,-0.09414 0.35318,0.111902 0.84084,0.03884 1.0837,-0.162359 0.24284,-0.2012 0.58982,-0.274336 0.77105,-0.162527 0.61639,0.380293 0.73421,-0.79167 0.12924,-1.285521 -0.57303,-0.467769 -0.57307,-0.475261 -0.002,-0.293319 0.48611,0.15475 0.55393,0.06536 0.39622,-0.522215 -0.10422,-0.389916 -0.19178,-0.955426 -0.19413,-1.256698 -0.002,-0.301272 -0.21593,-0.547767 -0.47461,-0.547767 -0.25868,0 -0.47033,-0.152047 -0.47033,-0.33788 0,-0.217281 0.36373,-0.260004 1.01905,-0.119696 1.4065,0.301139 1.53454,0.414488 1.19135,1.05464 -0.191,0.356254 -0.19031,0.668295 0.002,0.86015 0.16588,0.165594 0.33565,0.890714 0.37727,1.611379 0.0767,1.328738 0.63353,1.768024 0.97065,0.765775 0.10133,-0.301271 0.36471,-0.796959 0.58529,-1.101529 0.33051,-0.456374 0.3141,-0.705675 -0.0933,-1.417564 -0.454,-0.793312 -0.4495,-0.965236 0.0552,-2.10682 0.30209,-0.68366 0.56198,-1.595154 0.5774,-2.025542 0.0154,-0.430388 0.14052,-0.959346 0.27797,-1.175462 0.39155,-0.615656 0.2158,1.841619 -0.20306,2.83914 -0.54752,1.303896 -0.45159,2.203997 0.28374,2.662421 0.59376,0.370171 0.80231,0.262852 2.27326,-1.169842 2.34125,-2.280368 3.72743,-3.377881 4.4379,-3.513735 0.73235,-0.140038 0.99327,-1.052407 0.47816,-1.672002 -0.19861,-0.238897 -0.76016,-0.52185 -1.24788,-0.628786 l -0.88677,-0.194429 0.48567,-1.234234 c 0.26711,-0.67883 0.60535,-1.234236 0.75165,-1.234236 0.14629,0 0.26599,-0.282902 0.26599,-0.628672 0,-0.556102 0.0771,-0.5832 0.66807,-0.234757 0.53321,0.314396 0.6967,0.315016 0.80987,0.003 0.10886,-0.300041 0.29766,-0.281862 0.81268,0.07825 0.89645,0.626809 1.15846,0.591315 1.15846,-0.15692 0,-0.344311 0.14784,-0.626019 0.32853,-0.626019 0.18069,0 0.70268,-0.38735 1.15999,-0.860777 l 0.83148,-0.860777 -0.5329,0.849764 c -0.29308,0.467405 -0.53288,1.128152 -0.53288,1.468359 0,0.340207 -0.11699,0.690735 -0.25998,0.77895 -0.14298,0.08822 -0.44929,0.948218 -0.68068,1.911118 -0.23139,0.962899 -0.53771,1.822902 -0.68069,1.911117 -0.14299,0.08821 -0.25997,0.292932 -0.25997,0.454928 0,0.597436 0.68506,0.262187 1.9566,-0.957502 1.3141,-1.260517 1.80604,-1.516295 1.80604,-0.939029 0,0.172155 0.27387,0.31301 0.6086,0.31301 0.33473,0 0.68329,0.120638 0.77457,0.268083 0.0913,0.147446 -0.38806,0.236877 -1.06521,0.198735 -1.16382,-0.06556 -2.51284,0.670932 -2.51284,1.371861 0,0.137086 -0.64544,0.902797 -1.43431,1.701583 -1.56435,1.58402 -1.5731,2.08797 -0.0365,2.105003 l 1.00053,0.01109 -0.78388,0.435953 c -0.43114,0.239775 -0.83092,0.30521 -0.8884,0.145413 -0.0575,-0.159796 -0.83353,-0.288106 -1.72455,-0.285131 -1.30841,0.0044 -1.76036,0.153135 -2.34965,0.773425 -0.4013,0.42241 -0.64089,0.911352 -0.53243,1.086541 0.11714,0.189212 -0.005,0.241031 -0.3011,0.12764 -0.72955,-0.279469 -1.80138,0.807214 -1.59718,1.619339 0.11784,0.46875 -0.10918,0.930745 -0.76613,1.559052 -0.51349,0.491096 -0.93361,1.04659 -0.93361,1.234432 0,0.187842 -0.49384,1.37023 -1.09743,2.627527 -1.26475,2.634509 -1.31832,3.039197 -0.49638,3.74986 0.83113,0.718607 1.70573,4.635466 1.08791,4.872136 -0.23912,0.09159 -0.43476,0.311817 -0.43476,0.489378 0,0.391553 1.14661,1.574871 1.52602,1.574871 0.14948,0 0.26203,-0.929216 0.2501,-2.064928 -0.0171,-1.634171 0.0897,-2.127132 0.51209,-2.363126 0.29357,-0.164007 0.53593,-0.537694 0.53857,-0.830412 0.004,-0.396448 0.0702,-0.429311 0.26118,-0.128822 0.19608,0.308518 0.46507,0.324187 1.1437,0.06662 0.61273,-0.232557 0.98795,-0.236309 1.21252,-0.01211 0.22457,0.22418 0.13543,0.324641 -0.28807,0.324641 -0.37986,0 -0.77176,0.35741 -1.02966,0.939029 -0.229,0.516466 -0.60443,0.939029 -0.83428,0.939029 -0.63972,0 -0.73199,0.651031 -0.29923,2.111181 0.38429,1.296596 0.37121,1.347628 -0.54224,2.114909 -0.5223,0.438714 -1.09754,0.685451 -1.30142,0.558203 -0.20097,-0.125426 -0.56874,-0.258711 -0.81728,-0.296191 -1.64923,-0.24869 -1.8992,-0.452541 -2.24733,-1.832679 -0.1947,-0.771878 -0.4729,-1.4034 -0.61823,-1.4034 -0.14534,0 -0.42369,0.598631 -0.61857,1.330291 -0.19487,0.73166 -0.63438,1.786872 -0.97667,2.344912 -0.43232,0.704819 -0.71374,1.984158 -0.92164,4.189903 -0.16461,1.746403 -0.23582,3.238633 -0.15826,3.316069 0.0776,0.07743 0.29853,-0.152984 0.49103,-0.512037 0.1925,-0.359056 0.57633,-0.652829 0.85296,-0.652829 0.42051,0 0.47197,-0.261353 0.31384,-1.594202 -0.15665,-1.320397 -0.1103,-1.564003 0.26988,-1.418369 0.25246,0.09671 0.4635,0.0042 0.46899,-0.205601 0.006,-0.212486 0.20346,-0.12653 0.44682,0.194061 0.40941,0.539362 0.44325,0.521223 0.53874,-0.288871 0.10812,-0.917143 0.88578,-1.466491 0.88578,-0.625722 0,0.272578 0.21783,0.495598 0.48408,0.495598 0.26624,0 0.46117,-0.176068 0.43317,-0.391262 -0.028,-0.215194 -0.0178,-0.743398 0.0226,-1.173787 0.0525,-0.559238 0.11444,-0.626222 0.21692,-0.234757 0.0789,0.301272 0.33636,0.547767 0.57222,0.547767 0.68912,0 0.90566,0.640205 1.00536,2.972243 0.22411,5.242101 0.21273,5.17794 1.02789,5.791752 0.42618,0.320913 0.6706,0.687573 0.54316,0.814796 -0.36667,0.366027 -1.75288,-1.122349 -1.85829,-1.995258 -0.0525,-0.434877 -0.37444,-0.945743 -0.71538,-1.135265 -0.93091,-0.517476 -1.42314,-1.235668 -1.08356,-1.580967 0.38078,-0.387168 0.37405,-0.798175 -0.013,-0.798175 -0.16802,0 -0.5244,0.422563 -0.79194,0.939029 -0.26753,0.516466 -0.68806,0.939029 -0.9345,0.939029 -0.265,0 -0.53336,0.453861 -0.65684,1.110893 -0.11482,0.610989 -0.42825,1.330009 -0.69654,1.597817 -0.33986,0.339274 -0.52463,1.283769 -0.60935,3.114738 -0.0669,1.445297 -0.0536,2.627813 0.0296,2.627813 0.78119,0 1.08166,-0.418212 0.77818,-1.083113 -0.24716,-0.541523 -0.21321,-0.899697 0.13843,-1.460485 0.25625,-0.408652 0.43518,-1.065889 0.39763,-1.460528 -0.0375,-0.39464 0.0215,-0.772887 0.13114,-0.840553 0.10967,-0.06766 0.23367,0.384961 0.27556,1.005835 0.0418,0.620873 0.31044,1.299876 0.59678,1.508891 0.4373,0.31921 0.58659,0.253093 0.93283,-0.413133 0.22672,-0.436237 0.34133,-0.863918 0.25471,-0.950397 -0.0866,-0.08648 0.0872,-0.336482 0.38632,-0.555558 0.44834,-0.328362 0.64022,-0.311531 1.09257,0.09581 0.74468,0.670604 0.69473,1.123161 -0.0784,0.710119 -0.56445,-0.301566 -0.62711,-0.238041 -0.62711,0.635892 0,0.57035 0.34607,1.423858 0.83882,2.068756 0.7953,1.040888 0.85628,1.065438 1.17582,0.473329 0.30692,-0.56875 0.40551,-0.486989 1.10421,0.915848 0.42196,0.847192 0.95551,1.540349 1.18566,1.540349 0.23016,0 0.50131,0.215479 0.60255,0.478842 0.12117,0.315226 0.39903,0.410734 0.81319,0.279515 0.34601,-0.109632 0.71956,-0.07862 0.83012,0.06892 0.11056,0.147537 0.64728,0.672338 1.19273,1.166224 l 0.99172,0.897971 0.98912,-0.703098 c 0.66454,-0.472372 0.94027,-0.889602 0.84024,-1.271448 -0.0882,-0.336567 0.12496,-0.795608 0.52259,-1.125599 0.36932,-0.306486 0.49511,-0.356743 0.27955,-0.111688 -0.21557,0.245059 -0.39195,0.898892 -0.39195,1.452963 0,1.943527 -3.19085,3.022872 -4.07286,1.377689 -0.2668,-0.497669 -0.47303,-0.557479 -1.10077,-0.319228 -0.62207,0.236103 -0.8338,0.178731 -1.08762,-0.294693 -0.20719,-0.386463 -0.53142,-0.531418 -0.94637,-0.423091 -0.51382,0.13413 -0.63121,0.01246 -0.63121,-0.654253 0,-0.820023 -0.4206,-1.092802 -0.78285,-0.507706 -0.10601,0.171229 -0.46032,0.454287 -0.78738,0.629016 -0.46313,0.247427 -0.7264,0.176483 -1.19049,-0.320785 -0.53716,-0.575578 -0.6363,-0.58983 -1.00638,-0.144683 -0.32043,0.385428 -0.46445,0.406666 -0.65632,0.09678 -0.41235,-0.666057 -0.66939,-0.04616 -0.28115,0.678041 0.45036,0.840046 0.19041,1.620207 -0.4572,1.372128 -0.63108,-0.24175 -0.64004,0.613865 -0.0118,1.1343 0.25868,0.214315 0.48147,0.618911 0.49508,0.899102 0.0158,0.32438 0.0822,0.36731 0.18291,0.118179 0.087,-0.215194 0.57411,-0.391262 1.08252,-0.391262 0.53083,0 1.00091,-0.199124 1.10416,-0.467717 0.25868,-0.672943 0.71305,-0.275008 0.52139,0.456634 -0.0885,0.337871 -0.5604,0.790828 -1.04864,1.006573 -0.48824,0.215742 -1.02425,0.69141 -1.19114,1.057037 -0.24365,0.533831 -0.50459,0.635306 -1.32467,0.515154 -0.7463,-0.109347 -1.13346,0.0035 -1.4381,0.419477 -0.36171,0.493813 -0.27199,0.832208 0.6782,2.557865 0.60229,1.093819 1.09506,2.260763 1.09506,2.59321 0,0.332451 0.4233,1.036728 0.94066,1.565067 0.51737,0.528339 0.94282,1.272679 0.94546,1.654094 0.003,0.381414 0.1261,0.884584 0.27436,1.118157 0.47973,0.755806 0.73828,-0.201787 0.56473,-2.091658 -0.0897,-0.976869 -0.0949,-1.459204 -0.0114,-1.071855 0.0835,0.38735 0.3363,0.704272 0.56188,0.704272 0.22557,0 0.58577,0.211281 0.80046,0.469514 0.3117,0.374923 0.31043,0.56563 -0.006,0.946594 -0.21815,0.262393 -0.34124,0.508889 -0.27356,0.547767 0.0677,0.03887 0.54637,0.309426 1.06373,0.601221 0.6513,0.367332 0.91048,0.728404 0.84256,1.173786 -0.0721,0.472763 0.0733,0.643253 0.54872,0.643253 0.36402,0 0.64682,-0.203935 0.64682,-0.46645 0,-0.390075 0.10268,-0.378686 0.62711,0.06957 0.66193,0.565783 0.84269,1.335915 0.31355,1.335915 -0.17245,0 -0.31355,0.140855 -0.31355,0.31301 0,0.172155 0.24825,0.31301 0.55167,0.31301 0.30344,0 0.72387,0.275223 0.93432,0.611611 0.21043,0.336385 0.65762,0.758524 0.99372,0.938094 0.5509,0.294326 0.60602,0.226354 0.55942,-0.689858 -0.0284,-0.558995 0.0523,-1.393513 0.17942,-1.854489 0.15955,-0.578676 0.0855,-0.983574 -0.23951,-1.307933 -0.64587,-0.644756 -0.59554,-0.919206 0.31327,-1.708034 0.43113,-0.374219 0.78388,-0.954724 0.78388,-1.290013 0,-1.270763 1.40249,-1.127896 1.65067,0.168149 0.16145,0.843107 -0.70508,1.689366 -1.72982,1.689366 -0.54059,0 -0.53944,0.0397 0.0248,0.860777 1.27183,1.850691 1.75626,2.754808 1.67712,3.130096 -0.0955,0.453032 0.23299,0.497003 0.84081,0.112537 0.25947,-0.164121 0.34625,-0.518379 0.22241,-0.907894 -0.1117,-0.351316 -0.0563,-0.729347 0.12322,-0.840074 0.17947,-0.110727 0.33011,-0.650785 0.33474,-1.200129 0.01,-1.176619 1.33066,-2.866189 2.49999,-3.198173 l 0.78389,-0.222553 -0.79885,0.897949 c -1.47218,1.654813 -2.04602,3.576637 -1.51877,5.086479 0.36755,1.052518 0.81773,1.258586 1.10679,0.506616 0.0993,-0.258233 0.37704,-0.469515 0.61727,-0.469515 0.24023,0 0.43678,0.211282 0.43678,0.469515 0,0.27651 0.28647,0.469518 0.69688,0.469518 0.69393,0 0.69364,0.002 -0.067,0.534161 -0.42017,0.293789 -1.05125,0.554741 -1.40238,0.579909 -1.19236,0.08549 -2.66142,0.525103 -2.94023,0.879958 -1.00061,1.273509 -0.37848,4.638941 0.665,3.597274 0.23815,-0.237731 0.36736,-0.628798 0.28714,-0.869033 -0.11706,-0.350561 0.14605,-0.396857 1.33274,-0.234483 0.81323,0.111275 1.72172,0.07238 2.01887,-0.08637 0.32721,-0.174816 0.7191,-0.175716 0.99371,-0.002 0.38041,0.240244 0.36982,0.287147 -0.0658,0.291167 -0.72201,0.0068 -2.44019,2.671812 -2.23281,3.463433 0.11761,0.448973 0.33424,0.574265 0.7598,0.439436 0.3274,-0.103734 1.04246,-0.09058 1.58903,0.02925 l 0.99374,0.217884 -0.84401,0.441451 c -0.46421,0.242739 -0.84402,0.605918 -0.84402,0.807007 0,0.273258 -0.0951,0.270734 -0.37626,-0.01 -0.59927,-0.59823 -1.19055,-0.436638 -1.20262,0.32866 -0.006,0.38735 -0.21275,1.056408 -0.45922,1.486796 -0.62401,1.089695 -0.57639,1.565049 0.15678,1.565049 0.3484,0 0.62711,0.20867 0.62711,0.469514 0,0.260835 -0.27871,0.469515 -0.62711,0.469515 -0.48377,0 -0.62711,0.20867 -0.62711,0.912941 0,0.796708 0.28452,1.163337 0.97268,1.253417 0.10384,0.0136 0.66824,-0.301946 1.25422,-0.70118 z m -34.99323,-17.42867 c 0.85643,-0.367382 1.09744,-0.367382 1.09744,0 0,0.172155 -0.38802,0.303109 -0.86227,0.291008 -0.76408,-0.0195 -0.79086,-0.05263 -0.23517,-0.291008 z m 7.75779,-4.947005 c -0.31488,-0.81946 -1.92663,-2.111447 -2.94235,-2.358625 -0.81432,-0.198164 -4.20755,-3.578361 -3.90018,-3.885201 0.0864,-0.08628 -0.0489,-0.554597 -0.30065,-1.040685 -0.54097,-1.044294 -0.62668,-2.934066 -0.11887,-2.620767 0.18643,0.115018 0.25413,0.546514 0.15046,0.958882 -0.22375,0.889931 0.42661,2.007907 2.07336,3.564082 2.06403,1.950507 2.81774,2.510109 3.12524,2.320385 0.35965,-0.221887 1.65051,1.106314 2.30712,2.373858 0.29858,0.576396 0.35424,0.9749 0.15344,1.09878 -0.17327,0.106909 -0.41969,-0.07791 -0.54757,-0.410709 z m 58.28157,0.207097 c -0.02,-0.282854 -0.24802,-0.595355 -0.5067,-0.69445 -0.25868,-0.09909 -0.47033,-0.419993 -0.47033,-0.713111 0,-0.293122 -0.23901,-0.796594 -0.53114,-1.118828 -0.46997,-0.518413 -0.47276,-0.563524 -0.0242,-0.39171 0.27879,0.106799 0.58392,0.394568 0.67807,0.639491 0.0942,0.244921 0.31671,0.445313 0.49457,0.445313 0.43033,0 0.41244,-1.118202 -0.0292,-1.824132 -0.28788,-0.460172 -0.20156,-0.726274 0.47033,-1.450006 l 0.82291,-0.886402 0.0347,1.532505 c 0.0472,2.086171 -0.0492,3.03927 -0.34496,3.410559 -0.13715,0.172155 -0.31874,0.594718 -0.40351,0.939029 -0.1102,0.4475 -0.16453,0.479365 -0.19053,0.111742 z m -42.79737,-67.01756 -0.85624,-1.330291 1.1141,1.191205 c 1.1556,1.235579 1.29184,1.469377 0.85624,1.469377 -0.14182,0 -0.64317,-0.598631 -1.1141,-1.330291 z m -3.1482,-4.1916522 c -0.16514,-0.429597 -0.11926,-0.4489616 0.28001,-0.1181778 0.54408,0.450773 0.60071,0.6319665 0.1975,0.6319665 -0.154,0 -0.36889,-0.2312046 -0.47751,-0.5137887 z m 7.66522,92.4603782 c 0.008,-0.884399 0.054,-0.940819 0.35019,-0.431953 0.27479,0.472155 0.39281,0.50241 0.61041,0.156505 0.14837,-0.235853 0.19078,-0.682078 0.0943,-0.991615 -0.0965,-0.309527 -0.007,-0.765475 0.19895,-1.013212 0.47775,-0.574657 0.13018,-2.023608 -0.48542,-2.023608 -0.25539,0 -0.46435,-0.220769 -0.46435,-0.490603 0,-0.364246 -0.1817,-0.434849 -0.70549,-0.274128 -0.97351,0.298719 -0.92986,0.200023 -1.09398,2.473461 -0.12197,1.689489 -0.059,2.075802 0.36504,2.238224 0.33211,0.127229 0.44656,0.403578 0.32521,0.785263 -0.12896,0.405602 -0.0343,0.588948 0.30421,0.588948 0.34347,0 0.49433,-0.30631 0.50099,-1.017282 z m 0.36053,-7.229701 c 0.11731,-0.179873 0.0711,-0.592146 -0.10253,-0.916141 -0.1737,-0.324004 -0.23395,-0.802077 -0.13388,-1.062394 0.31536,-0.820388 -0.14054,-1.060809 -0.81757,-0.431151 -0.37612,0.349798 -0.57182,0.81091 -0.46365,1.092355 0.12204,0.31746 0.01,0.487033 -0.32186,0.487033 -0.4657,0 -0.46475,0.04891 0.0112,0.573855 0.57495,0.634206 1.4976,0.763616 1.82835,0.256443 z m -0.98941,-4.137274 c 0.42352,-1.112016 0.39342,-1.300683 -0.32131,-2.014188 -0.74065,-0.739358 -1.25422,-0.807467 -1.25422,-0.166326 0,0.280017 -0.18383,0.389267 -0.47033,0.279518 -0.36548,-0.140003 -0.47033,0.0762 -0.47033,0.969948 0,0.983545 0.0854,1.12304 0.58998,0.96319 0.37234,-0.117975 0.65787,-0.01027 0.77404,0.291921 0.27844,0.724363 0.80979,0.57492 1.15217,-0.324063 z m -2.67296,-3.266227 c 0.10658,-0.172155 0.0444,-0.31301 -0.13827,-0.31301 -0.18264,0 -0.33206,0.140855 -0.33206,0.31301 0,0.172155 0.0622,0.31301 0.13826,0.31301 0.076,0 0.22549,-0.140855 0.33207,-0.31301 z M 143.30423,82.9038 c 0.10882,-0.175762 -0.30615,-0.529788 -0.92215,-0.786726 -0.92983,-0.387834 -1.12,-0.625881 -1.12,-1.401982 0,-0.726155 -0.13999,-0.934829 -0.62711,-0.934829 -1.06634,0 -0.57887,1.496224 0.8918,2.73728 0.90479,0.763514 1.46812,0.88593 1.77746,0.386257 z"
     id="path20"
     inkscape:connector-curvature="0" />
</svg>
